<?xml version="1.0" encoding="UTF-8"?>
<svg width="1046px" height="705px" viewBox="0 0 1046 705" version="1.1" xmlns="http://www.w3.org/2000/svg" xmlns:xlink="http://www.w3.org/1999/xlink">
    <!-- Generator: Sketch 58 (84663) - https://sketch.com -->
    <title>Slice 1</title>
    <desc>Created with Sketch.</desc>
    <g id="Page-1" stroke="none" stroke-width="1" fill="none" fill-rule="evenodd">
        <g id="mobile-walker" fill-rule="nonzero">
            <path d="M417.15,68.3 C337.044442,-8.04994544 215.889248,-21.6928854 120.81,34.93 C215.79,68.93 320.59,70.18 417.15,68.3 L417.15,68.3 Z M967.64,620.48 L863.92,440.83 C863.332404,439.802002 862.239082,439.167613 861.055,439.167613 C859.870918,439.167613 858.777596,439.802002 858.19,440.83 L754.47,620.48 C753.854315,621.50424 753.840483,622.781309 754.433839,623.818644 C755.027194,624.855979 756.135009,625.491467 757.33,625.48 L788.27,625.48 C790.095783,625.485491 791.574509,626.964217 791.58,628.79 L791.58,667.13 C791.579992,668.954164 793.055844,670.434489 794.88,670.44 L835.25,670.44 C837.078063,670.44 838.56,668.958063 838.56,667.13 L838.56,648.6 C838.56,646.77746 840.03746,645.3 841.86,645.3 L880.24,645.3 C882.064164,645.299992 883.544489,646.775844 883.55,648.6 L883.55,667.13 C883.55,668.958063 885.031937,670.44 886.86,670.44 L927.22,670.44 C929.048063,670.44 930.53,668.958063 930.53,667.13 L930.53,628.75 C930.53,626.921937 932.011937,625.44 933.84,625.44 L964.78,625.44 C965.959834,625.436643 967.048688,624.805524 967.638042,623.783427 C968.227396,622.76133 968.228142,621.502795 967.64,620.48 L967.64,620.48 Z M823,640.36 C822.385057,640.992762 821.542323,641.352905 820.66,641.36 L806.13,641.36 C804.301937,641.36 802.82,639.878063 802.82,638.05 C802.82,636.221937 804.301937,634.74 806.13,634.74 L820.69,634.74 C822.028445,634.740423 823.23491,635.546874 823.747053,636.783459 C824.259197,638.020045 823.976212,639.443365 823.03,640.39 L823,640.36 Z M918.28,640.36 C917.665057,640.992762 916.822323,641.352905 915.94,641.36 L901.42,641.36 C899.591937,641.36 898.11,639.878063 898.11,638.05 C898.11,636.221937 899.591937,634.74 901.42,634.74 L916,634.74 C917.338445,634.740423 918.54491,635.546874 919.057053,636.783459 C919.569197,638.020045 919.286212,639.443365 918.34,640.39 L918.28,640.36 Z M326.55,622.06 L222.83,442.41 C222.238323,441.387388 221.146447,440.757672 219.965,440.757672 C218.783553,440.757672 217.691677,441.387388 217.1,442.41 L127.51,597.58 C138.702742,611.685269 151.260272,624.651446 165,636.29 L179.6,636.29 C181.428063,636.29 182.91,637.771937 182.91,639.6 C182.91,641.428063 181.428063,642.91 179.6,642.91 L173.44,642.91 C180.984753,648.583678 189.015969,653.579763 197.44,657.84 L197.44,650.19 C197.44,648.361937 198.921937,646.88 200.75,646.88 L239.13,646.88 C240.954156,646.885511 242.430008,648.365836 242.43,650.19 L242.43,668.71 C242.428292,669.190663 242.534216,669.665612 242.74,670.1 C243.281074,671.269345 244.451541,672.020025 245.74,672.020025 L286.11,672.020025 C287.149234,672.024114 288.127369,671.529468 288.74,670.69 C289.184363,670.118971 289.420704,669.413476 289.41,668.69 L289.41,630.34 C289.41,628.511937 290.891937,627.03 292.72,627.03 L323.66,627.03 C324.848284,627.039481 325.950465,626.411251 326.547812,625.383979 C327.145159,624.356708 327.145994,623.088057 326.55,622.06 L326.55,622.06 Z M258,637.26 C258.614943,636.627238 259.457677,636.267095 260.34,636.26 L274.9,636.26 C276.728063,636.26 278.21,637.741937 278.21,639.57 C278.21,641.398063 276.728063,642.88 274.9,642.88 L260.33,642.88 C258.991555,642.879577 257.78509,642.073126 257.272947,640.836541 C256.760803,639.599955 257.043788,638.176635 257.99,637.23 L258,637.26 Z M192.85,570.78 C191.021937,570.78 189.54,569.298063 189.54,567.47 L189.54,542.33 C189.54,540.501937 191.021937,539.02 192.85,539.02 L247.1,539.02 C248.924156,539.025511 250.4,540.505836 250.4,542.33 L250.4,567.47 C250.4,569.294164 248.924156,570.774489 247.1,570.78 L192.85,570.78 Z M736.53,299.34 L608.18,299.34 L608.18,271.58 C608.18,267.912829 605.207171,264.94 601.54,264.94 L563.85,264.94 L563.85,235.37 C563.85,233.06145 561.97855,231.19 559.67,231.19 L511.12,231.19 C508.81145,231.19 506.94,233.06145 506.94,235.37 L506.94,264.93 L462.63,264.93 C458.962829,264.93 455.99,267.902829 455.99,271.57 L455.99,299.33 L333.6,299.33 C332.858324,299.335494 332.26,299.938303 332.26,300.68 L332.26,669.21 C332.26,669.951697 332.858324,670.554506 333.6,670.56 L414.94,670.56 C415.298042,670.56 415.64142,670.417768 415.894594,670.164594 C416.147768,669.91142 416.29,669.568042 416.29,669.21 L416.29,619.63 C416.295446,618.886683 416.896683,618.285446 417.64,618.28 L452,618.28 C452.743317,618.285446 453.344554,618.886683 453.35,619.63 L453.35,669.21 C453.34998,669.951697 453.948324,670.554506 454.69,670.56 L615.44,670.56 C616.183317,670.554554 616.784554,669.953317 616.79,669.21 L616.79,619.63 C616.78998,618.888303 617.388324,618.285494 618.13,618.28 L652.49,618.28 C653.235584,618.28 653.84,618.884416 653.84,619.63 L653.84,669.21 C653.845446,669.953317 654.446683,670.554554 655.19,670.56 L736.53,670.56 C737.273317,670.554554 737.874554,669.953317 737.88,669.21 L737.88,300.69 C737.874554,299.946683 737.273317,299.345446 736.53,299.34 L736.53,299.34 Z M401.73,601.06 C401.73,601.800062 401.130062,602.400037 400.39,602.400037 L350.15,602.400037 C349.79288,602.402665 349.449472,602.262664 349.196006,602.011076 C348.94254,601.759488 348.8,601.41713 348.8,601.06 L348.8,583.93 C348.8,583.184416 349.404416,582.58 350.15,582.58 L400.39,582.58 C401.131676,582.585494 401.73,583.188303 401.73,583.93 L401.73,601.06 Z M401.730037,556.72 C401.732665,557.07712 401.592664,557.420528 401.341076,557.673994 C401.089488,557.92746 400.74713,558.070038 400.39,558.070038 L350.15,558.070038 C349.79114,558.072688 349.446199,557.93132 349.192439,557.677561 C348.93868,557.423801 348.797312,557.07886 348.799962,556.72 L348.799962,539.57 C348.797312,539.21114 348.93868,538.866199 349.192439,538.612439 C349.446199,538.35868 349.79114,538.217312 350.15,538.219962 L400.39,538.219962 C400.74713,538.219962 401.089488,538.36254 401.341076,538.616006 C401.592664,538.869472 401.732665,539.21288 401.730037,539.57 L401.730037,556.72 Z M401.73,512.39 C401.73,513.131697 401.131676,513.734506 400.39,513.74 L350.15,513.74 C349.404416,513.74 348.8,513.135584 348.8,512.39 L348.8,495.23 C348.8,494.484416 349.404416,493.88 350.15,493.88 L400.39,493.88 C401.131676,493.885494 401.73,494.488303 401.73,495.23 L401.73,512.39 Z M401.730037,468.05 C401.732665,468.40712 401.592664,468.750528 401.341076,469.003994 C401.089488,469.25746 400.74713,469.400038 400.39,469.400038 L350.15,469.400038 C349.79114,469.402688 349.446199,469.26132 349.192439,469.007561 C348.93868,468.753801 348.797312,468.40886 348.799962,468.05 L348.799962,450.93 C348.797312,450.57114 348.93868,450.226199 349.192439,449.972439 C349.446199,449.71868 349.79114,449.577312 350.15,449.579962 L400.39,449.579962 C400.74713,449.579962 401.089488,449.72254 401.341076,449.976006 C401.592664,450.229472 401.732665,450.57288 401.730037,450.93 L401.730037,468.05 Z M401.73,423.72 C401.73,424.461697 401.131676,425.064506 400.39,425.07 L350.15,425.07 C349.404416,425.07 348.8,424.465584 348.8,423.72 L348.8,406.56 C348.8,406.20287 348.94254,405.860512 349.196006,405.608924 C349.449472,405.357336 349.79288,405.217335 350.15,405.219963 L400.39,405.219963 C401.130062,405.219963 401.73,405.819938 401.73,406.56 L401.73,423.72 Z M401.73,379.39 C401.73,380.130062 401.130062,380.730037 400.39,380.730037 L350.15,380.730037 C349.79288,380.732665 349.449472,380.592664 349.196006,380.341076 C348.94254,380.089488 348.8,379.74713 348.8,379.39 L348.8,362.23 C348.8,361.484416 349.404416,360.88 350.15,360.88 L400.39,360.88 C401.131676,360.885494 401.73,361.488303 401.73,362.23 L401.73,379.39 Z M401.730037,335.05 C401.732665,335.40712 401.592664,335.750528 401.341076,336.003994 C401.089488,336.25746 400.74713,336.400038 400.39,336.400038 L350.15,336.400038 C349.79114,336.402688 349.446199,336.26132 349.192439,336.007561 C348.93868,335.753801 348.797312,335.40886 348.799962,335.05 L348.799962,317.93 C348.797312,317.57114 348.93868,317.226199 349.192439,316.972439 C349.446199,316.71868 349.79114,316.577312 350.15,316.579962 L400.39,316.579962 C400.74713,316.579962 401.089488,316.72254 401.341076,316.976006 C401.592664,317.229472 401.732665,317.57288 401.730037,317.93 L401.730037,335.05 Z M520.84,601.05 C520.84,601.40713 520.69746,601.749488 520.443994,602.001076 C520.190528,602.252664 519.84712,602.392665 519.49,602.390037 L469.25,602.390037 C468.508303,602.390037 467.905494,601.791676 467.9,601.05 L467.9,583.93 C467.905446,583.186683 468.506683,582.585446 469.25,582.58 L519.49,582.58 C519.848042,582.58 520.19142,582.722232 520.444594,582.975406 C520.697768,583.22858 520.84,583.571958 520.84,583.93 L520.84,601.05 Z M520.840038,556.71 C520.842688,557.06886 520.70132,557.413801 520.447561,557.667561 C520.193801,557.92132 519.84886,558.062688 519.49,558.060038 L469.25,558.060038 C468.504416,558.060038 467.9,557.455584 467.9,556.71 L467.9,539.57 C467.9,539.211958 468.042232,538.86858 468.295406,538.615406 C468.54858,538.362232 468.891958,538.219962 469.25,538.219962 L519.49,538.219962 C519.84886,538.217312 520.193801,538.35868 520.447561,538.612439 C520.70132,538.866199 520.842688,539.21114 520.840038,539.57 L520.840038,556.71 Z M520.84,512.38 C520.84,513.125584 520.235584,513.73 519.49,513.73 L469.25,513.73 C468.506683,513.724554 467.905446,513.123317 467.9,512.38 L467.9,495.23 C467.905446,494.486683 468.506683,493.885446 469.25,493.88 L519.49,493.88 C520.235584,493.88 520.84,494.484416 520.84,495.23 L520.84,512.38 Z M520.840038,468.04 C520.842688,468.39886 520.70132,468.743801 520.447561,468.997561 C520.193801,469.25132 519.84886,469.392688 519.49,469.390038 L469.25,469.390038 C468.504416,469.390038 467.9,468.785584 467.9,468.04 L467.9,450.93 C467.9,450.571958 468.042232,450.22858 468.295406,449.975406 C468.54858,449.722232 468.891958,449.579962 469.25,449.579962 L519.49,449.579962 C519.84886,449.577312 520.193801,449.71868 520.447561,449.972439 C520.70132,450.226199 520.842688,450.57114 520.840038,450.93 L520.840038,468.04 Z M520.84,423.71 C520.84,424.455584 520.235584,425.06 519.49,425.06 L469.25,425.06 C468.506683,425.054554 467.905446,424.453317 467.9,423.71 L467.9,406.56 C467.905494,405.818324 468.508303,405.219963 469.25,405.219963 L519.49,405.219963 C519.84712,405.217335 520.190528,405.357336 520.443994,405.608924 C520.69746,405.860512 520.84,406.20287 520.84,406.56 L520.84,423.71 Z M520.84,379.38 C520.84,379.73713 520.69746,380.079488 520.443994,380.331076 C520.190528,380.582664 519.84712,380.722665 519.49,380.720037 L469.25,380.720037 C468.508303,380.720037 467.905494,380.121676 467.9,379.38 L467.9,362.23 C467.905446,361.486683 468.506683,360.885446 469.25,360.88 L519.49,360.88 C520.235584,360.88 520.84,361.484416 520.84,362.23 L520.84,379.38 Z M520.840038,335.04 C520.842688,335.39886 520.70132,335.743801 520.447561,335.997561 C520.193801,336.25132 519.84886,336.392688 519.49,336.390038 L469.25,336.390038 C468.504416,336.390038 467.9,335.785584 467.9,335.04 L467.9,317.93 C467.9,317.571958 468.042232,317.22858 468.295406,316.975406 C468.54858,316.722232 468.891958,316.579962 469.25,316.579962 L519.49,316.579962 C519.84886,316.577312 520.193801,316.71868 520.447561,316.972439 C520.70132,317.226199 520.842688,317.57114 520.840038,317.93 L520.840038,335.04 Z M602.23,601.04 C602.23,601.39713 602.08746,601.739488 601.833994,601.991076 C601.580528,602.242664 601.23712,602.382665 600.88,602.380037 L550.64,602.380037 C549.898303,602.380037 549.295494,601.781676 549.29,601.04 L549.29,583.93 C549.295446,583.186683 549.896683,582.585446 550.64,582.58 L600.88,582.58 C601.625584,582.58 602.23,583.184416 602.23,583.93 L602.23,601.04 Z M602.230038,556.7 C602.232688,557.05886 602.09132,557.403801 601.837561,557.657561 C601.583801,557.91132 601.23886,558.052688 600.88,558.050038 L550.64,558.050038 C550.281958,558.050038 549.93858,557.907768 549.685406,557.654594 C549.432232,557.40142 549.29,557.058042 549.29,556.7 L549.29,539.57 C549.29,538.824416 549.894416,538.219962 550.64,538.219962 L600.88,538.219962 C601.23886,538.217312 601.583801,538.35868 601.837561,538.612439 C602.09132,538.866199 602.232688,539.21114 602.230038,539.57 L602.230038,556.7 Z M602.23,512.37 C602.23,513.115584 601.625584,513.72 600.88,513.72 L550.64,513.72 C549.896683,513.714554 549.295446,513.113317 549.29,512.37 L549.29,495.23 C549.295446,494.486683 549.896683,493.885446 550.64,493.88 L600.88,493.88 C601.625584,493.88 602.23,494.484416 602.23,495.23 L602.23,512.37 Z M602.230038,468.03 C602.232688,468.38886 602.09132,468.733801 601.837561,468.987561 C601.583801,469.24132 601.23886,469.382688 600.88,469.380038 L550.64,469.380038 C549.894416,469.380038 549.29,468.775584 549.29,468.03 L549.29,450.93 C549.29,450.184416 549.894416,449.579962 550.64,449.579962 L600.88,449.579962 C601.23886,449.577312 601.583801,449.71868 601.837561,449.972439 C602.09132,450.226199 602.232688,450.57114 602.230038,450.93 L602.230038,468.03 Z M602.23,423.7 C602.23,424.445584 601.625584,425.05 600.88,425.05 L550.64,425.05 C549.896683,425.044554 549.295446,424.443317 549.29,423.7 L549.29,406.56 C549.295494,405.818324 549.898303,405.219963 550.64,405.219963 L600.88,405.219963 C601.23712,405.217335 601.580528,405.357336 601.833994,405.608924 C602.08746,405.860512 602.23,406.20287 602.23,406.56 L602.23,423.7 Z M602.23,379.37 C602.23,379.72713 602.08746,380.069488 601.833994,380.321076 C601.580528,380.572664 601.23712,380.712665 600.88,380.710037 L550.64,380.710037 C549.898303,380.710037 549.295494,380.111676 549.29,379.37 L549.29,362.23 C549.295446,361.486683 549.896683,360.885446 550.64,360.88 L600.88,360.88 C601.625584,360.88 602.23,361.484416 602.23,362.23 L602.23,379.37 Z M602.230038,335.03 C602.232688,335.38886 602.09132,335.733801 601.837561,335.987561 C601.583801,336.24132 601.23886,336.382688 600.88,336.380038 L550.64,336.380038 C550.281958,336.380038 549.93858,336.237768 549.685406,335.984594 C549.432232,335.73142 549.29,335.388042 549.29,335.03 L549.29,317.93 C549.29,317.571958 549.432232,317.22858 549.685406,316.975406 C549.93858,316.722232 550.281958,316.579962 550.64,316.579962 L600.88,316.579962 C601.23886,316.577312 601.583801,316.71868 601.837561,316.972439 C602.09132,317.226199 602.232688,317.57114 602.230038,317.93 L602.230038,335.03 Z M721.34,601.03 C721.334506,601.771676 720.731697,602.370037 719.99,602.370037 L669.75,602.370037 C669.39288,602.372665 669.049472,602.232664 668.796006,601.981076 C668.54254,601.729488 668.4,601.38713 668.4,601.03 L668.4,583.93 C668.4,583.184416 669.004416,582.58 669.75,582.58 L720,582.58 C720.743317,582.585446 721.344554,583.186683 721.35,583.93 L721.34,601.03 Z M721.34,556.69 C721.34,557.435584 720.735584,558.040038 719.99,558.040038 L669.75,558.040038 C669.39114,558.042688 669.046199,557.90132 668.792439,557.647561 C668.53868,557.393801 668.397312,557.04886 668.399962,556.69 L668.399962,539.57 C668.397312,539.21114 668.53868,538.866199 668.792439,538.612439 C669.046199,538.35868 669.39114,538.217312 669.75,538.219962 L720,538.219962 C720.745584,538.219962 721.35,538.824416 721.35,539.57 L721.34,556.69 Z M721.34,512.36 C721.334554,513.103317 720.733317,513.704554 719.99,513.71 L669.75,513.71 C669.391958,513.71 669.04858,513.567768 668.795406,513.314594 C668.542232,513.06142 668.4,512.718042 668.4,512.36 L668.4,495.23 C668.4,494.484416 669.004416,493.88 669.75,493.88 L720,493.88 C720.743317,493.885446 721.344554,494.486683 721.35,495.23 L721.34,512.36 Z M721.34,468.02 C721.34,468.765584 720.735584,469.370038 719.99,469.370038 L669.75,469.370038 C669.39114,469.372688 669.046199,469.23132 668.792439,468.977561 C668.53868,468.723801 668.397312,468.37886 668.399962,468.02 L668.399962,450.93 C668.397312,450.57114 668.53868,450.226199 668.792439,449.972439 C669.046199,449.71868 669.39114,449.577312 669.75,449.579962 L720,449.579962 C720.745584,449.579962 721.35,450.184416 721.35,450.93 L721.34,468.02 Z M721.34,423.69 C721.334554,424.433317 720.733317,425.034554 719.99,425.04 L669.75,425.04 C669.391958,425.04 669.04858,424.897768 668.795406,424.644594 C668.542232,424.39142 668.4,424.048042 668.4,423.69 L668.4,406.56 C668.4,406.20287 668.54254,405.860512 668.796006,405.608924 C669.049472,405.357336 669.39288,405.217335 669.75,405.219963 L720,405.219963 C720.741697,405.219963 721.344506,405.818324 721.35,406.56 L721.34,423.69 Z M721.34,379.36 C721.34534,379.719768 721.206841,380.066782 720.955251,380.324005 C720.703661,380.581228 720.359798,380.727374 720,380.730037 L669.75,380.730037 C669.39288,380.732665 669.049472,380.592664 668.796006,380.341076 C668.54254,380.089488 668.4,379.74713 668.4,379.39 L668.4,362.23 C668.4,361.484416 669.004416,360.88 669.75,360.88 L720,360.88 C720.743317,360.885446 721.344554,361.486683 721.35,362.23 L721.34,379.36 Z M721.34,335.02 C721.34,335.765584 720.735584,336.370038 719.99,336.370038 L669.75,336.370038 C669.39114,336.372688 669.046199,336.23132 668.792439,335.977561 C668.53868,335.723801 668.397312,335.37886 668.399962,335.02 L668.399962,317.93 C668.397312,317.57114 668.53868,317.226199 668.792439,316.972439 C669.046199,316.71868 669.39114,316.577312 669.75,316.579962 L720,316.579962 C720.745584,316.579962 721.35,317.184416 721.35,317.93 L721.34,335.02 Z M371,199.46 C365.353418,198.384857 359.514471,199.018541 354.23,201.28 C347.788502,204.150955 340.427228,204.132761 334,201.23 C326.419691,197.906419 317.762459,198.078248 310.32,201.7 C308.216866,202.807947 305.877107,203.391171 303.5,203.4 C293.9,203.4 285.91,193.73 284.25,180.97 C286.168318,179.572206 287.798238,177.816646 289.05,175.8 C294.68,166.73 303.4,160.9 313.19,160.9 C322.98,160.9 331.59,166.66 337.19,175.63 C340.605219,181.142254 346.655945,184.465411 353.14,184.39 L353.39,184.39 C361.11,184.39 367.73,190.52 371,199.46 L371,199.46 Z" id="Shape" fill="#1E87F0" opacity="0.1"></path>
            <path d="M400.2,159.41 L384.68,169.25 L394.1,152.12 C391.430294,149.988994 388.125687,148.810034 384.71,148.77 L384.46,148.77 C383.38167,148.78577 382.304078,148.705452 381.24,148.53 L376,151.87 L378.26,147.77 C374.530973,146.466926 371.310363,144.016461 369.06,140.77 L359.64,146.77 L365.57,135.93 C360.06,129.32 352.64,125.27 344.48,125.27 C334.69,125.27 325.97,131.09 320.34,140.16 C316.94528,145.700791 310.834338,148.989242 304.34,148.77 L303.81,148.77 C293,148.77 284.24,161.02 284.24,176.14 C284.24,191.26 293,203.51 303.81,203.51 C306.18864,203.50368 308.529765,202.916682 310.63,201.8 C318.073933,198.181452 326.731151,198.013279 334.31,201.34 C340.71873,204.200001 348.04127,204.200001 354.45,201.34 C361.970074,198.070252 370.540733,198.23451 377.93,201.79 C380.010372,202.878754 382.321966,203.451508 384.67,203.46 C395.48,203.46 404.24,191.2 404.24,176.09 C404.308664,170.279721 402.919662,164.544929 400.2,159.41 L400.2,159.41 Z M832,381.93 C828.047254,381.181251 823.961183,381.623271 820.26,383.2 C815.77405,385.206025 810.64595,385.206025 806.16,383.2 C800.852335,380.873389 794.790883,380.994033 789.58,383.53 C788.109646,384.306617 786.472843,384.714959 784.81,384.72 C778.09,384.72 772.5,377.95 771.34,369.02 C772.679887,368.037841 773.820245,366.809242 774.7,365.4 C778.64,359.05 784.7,354.97 791.59,354.97 C798.48,354.97 804.48,358.97 808.42,365.28 C810.807822,369.138798 815.042489,371.464829 819.58,371.41 L819.76,371.41 C825.06,371.39 829.69,375.68 832,381.93 L832,381.93 Z" id="Shape" fill="#1E87F0" opacity="0.1"></path>
            <path d="M852.42,353.93 L841.56,360.82 L848.15,348.82 C846.281284,347.330855 843.96933,346.507419 841.58,346.48 L841.41,346.48 C840.656473,346.489213 839.903589,346.432328 839.16,346.31 L835.47,348.64 L837.05,345.78 C834.444316,344.864436 832.191766,343.154036 830.61,340.89 L824,345.05 L828.16,337.48 C824.31,332.85 819.16,330.01 813.4,330.01 C806.55,330.01 800.4,334.09 796.5,340.44 C794.124546,344.301035 789.860725,346.59136 785.33,346.44 L785,346.44 C777.44,346.44 771.3,355.01 771.3,365.59 C771.3,376.17 777.44,384.75 785,384.75 C786.662843,384.744959 788.299646,384.336617 789.77,383.56 C794.981055,381.021825 801.044887,380.904791 806.35,383.24 C810.838639,385.233385 815.961361,385.233385 820.45,383.24 C825.71314,380.954983 831.709827,381.071778 836.88,383.56 C838.33895,384.315848 839.956893,384.713478 841.6,384.72 C849.17,384.72 855.300413,376.15 855.300413,365.56 C855.323616,361.503972 854.333649,357.506293 852.42,353.93 L852.42,353.93 Z M238.62,317.93 C242.57277,317.181859 246.658664,317.623859 250.36,319.2 C254.842286,321.206864 259.967714,321.206864 264.45,319.2 C269.757665,316.873389 275.819117,316.994033 281.03,319.53 C282.500782,320.305496 284.137305,320.713768 285.8,320.72 C292.52,320.72 298.12,313.95 299.28,305.02 C297.937801,304.04044 296.796992,302.811354 295.92,301.4 C292,295.03 285.87,290.93 279,290.93 C272.13,290.93 266.12,294.93 262.18,301.24 C259.784921,305.103712 255.545612,307.435712 251,307.39 L250.83,307.39 C245.51,307.39 240.87,311.68 238.62,317.93 L238.62,317.93 Z" id="Shape" fill="#1E87F0" opacity="0.1"></path>
            <path d="M218.14,289.93 L229,296.79 L222.4,284.79 C224.269466,283.302206 226.580942,282.478941 228.97,282.45 L229.15,282.45 C229.90351,282.458652 230.656345,282.401771 231.4,282.28 L235.08,284.61 L233.5,281.75 C236.108709,280.835062 238.364639,279.124752 239.95,276.86 L246.54,281.04 L242.37,273.47 C246.23,268.84 251.42,266 257.14,266 C263.99,266 270.14,270.08 274.04,276.43 C276.41397,280.292609 280.678783,282.583467 285.21,282.43 L285.57,282.43 C293.14,282.43 299.27,291 299.27,301.58 C299.27,312.16 293.14,320.74 285.57,320.74 C283.907453,320.732585 282.271208,320.324381 280.8,319.55 C275.588945,317.011825 269.525113,316.894791 264.22,319.23 C259.734749,321.222936 254.615251,321.222936 250.13,319.23 C244.863475,316.944595 238.8636,317.061381 233.69,319.55 C232.231459,320.306936 230.613248,320.704632 228.97,320.71 C221.41,320.71 215.269536,312.14 215.269536,301.55 C215.244976,297.498209 216.231443,293.50422 218.14,289.93 L218.14,289.93 Z" id="Path" fill="#1E87F0" opacity="0.1"></path>
            <path d="M218.68,675.06 C232.22,683.66 251.73,674.96 265.36,683.43 C268.88,685.61 271.72,688.82 275.36,690.8 C279.73,693.19 284.87,693.62 289.84,693.8 C331.46,695.41 373.78,683.8 414.36,693.18 C425.71,695.8 436.81,700.06 448.44,700.68 C468.53,701.77 487.78,691.97 507.89,691.43 C538.39,690.61 568.36,711.02 597.79,702.97 C607.47,700.32 616.35,694.67 626.34,693.72 C637.47,692.72 648.17,697.57 658.99,700.4 C697.36,710.4 737.32,694.2 776.99,692.99 C802.86,692.2 828.48,697.84 854.33,699.14 C872.71,700.06 891.13,698.77 909.49,697.49 C916.49,697 923.82,696.4 929.68,692.56 C935.54,688.72 939.14,680.47 935.52,674.47 L218.68,675.06 Z" id="Path" fill="#3F3D56"></path>
            <path d="M218.68,675.06 C232.22,683.66 251.73,674.96 265.36,683.43 C268.88,685.61 271.72,688.82 275.36,690.8 C279.73,693.19 284.87,693.62 289.84,693.8 C331.46,695.41 373.78,683.8 414.36,693.18 C425.71,695.8 436.81,700.06 448.44,700.68 C468.53,701.77 487.78,691.97 507.89,691.43 C538.39,690.61 568.36,711.02 597.79,702.97 C607.47,700.32 616.35,694.67 626.34,693.72 C637.47,692.72 648.17,697.57 658.99,700.4 C697.36,710.4 737.32,694.2 776.99,692.99 C802.86,692.2 828.48,697.84 854.33,699.14 C872.71,700.06 891.13,698.77 909.49,697.49 C916.49,697 923.82,696.4 929.68,692.56 C935.54,688.72 939.14,680.47 935.52,674.47 L218.68,675.06 Z" id="Path" fill="#000000" opacity="0.1"></path>
            <path d="M218.68,670.06 C232.22,678.66 251.73,669.96 265.36,678.43 C268.88,680.61 271.72,683.82 275.36,685.8 C279.73,688.19 284.87,688.62 289.84,688.8 C331.46,690.41 373.78,678.8 414.36,688.18 C425.71,690.8 436.81,695.06 448.44,695.68 C468.53,696.77 487.78,686.97 507.89,686.43 C538.39,685.61 568.36,706.02 597.79,697.97 C607.47,695.32 616.35,689.67 626.34,688.72 C637.47,687.72 648.17,692.57 658.99,695.4 C697.36,705.4 737.32,689.2 776.99,687.99 C802.86,687.2 828.48,692.84 854.33,694.14 C872.71,695.06 891.13,693.77 909.49,692.49 C916.49,692 923.82,691.4 929.68,687.56 C935.54,683.72 939.14,675.47 935.52,669.47 L218.68,670.06 Z" id="Path" fill="#3F3D56"></path>
            <g id="Group" opacity="0.1" transform="translate(32.000000, 183.000000)">
                <path d="M90.35,363.86 C90.3912792,368.200213 89.2764412,372.473183 87.12,376.24 C91.4266938,383.931511 91.4266938,393.308489 87.12,401 C88.215338,402.873389 89.036997,404.893862 89.56,407 C78.6440542,392.611716 68.5962054,377.585023 59.47,362 C59.6897919,358.282509 60.7716558,354.667166 62.63,351.44 C60.4735588,347.673183 59.3587208,343.400213 59.4,339.06 C59.3871486,336.127333 59.8810797,333.214492 60.86,330.45 C61.3259618,329.138749 61.9187711,327.876099 62.63,326.68 C65.45,321.89 69.89,318.8 74.87,318.8 C79.85,318.8 84.3,321.89 87.12,326.68 C87.8059919,327.841776 88.3850376,329.063462 88.85,330.33 C89.8528811,333.130889 90.3604599,336.084998 90.35,339.06 C90.3912792,343.400213 89.2764412,347.673183 87.12,351.44 C89.2833279,355.218554 90.3984056,359.506253 90.35,363.86 L90.35,363.86 Z" id="Path" fill="#3F3D56"></path>
                <ellipse id="Oval" fill="#3F3D56" cx="74.87" cy="314.35" rx="15.47" ry="20.26"></ellipse>
                <ellipse id="Oval" fill="#3F3D56" cx="74.87" cy="289.59" rx="15.47" ry="20.26"></ellipse>
                <path d="M148.670089,165.93 C148.695748,182.558562 143.103446,198.708229 132.8,211.76 C148.75652,232.048908 153.010627,259.177136 144.030523,283.376475 C135.050419,307.575815 114.129169,325.361749 88.8,330.33 C87.02,330.69 85.21,330.97 83.38,331.19 C77.7351182,331.865162 72.0317139,331.895357 66.38,331.28 C64.5,331.08 62.6433333,330.803333 60.81,330.45 C52.7259713,328.95627 44.9508153,326.113267 37.81,322.04 C24.5003455,294.849833 12.8750792,266.867039 3,238.25 C5.59795244,228.626163 10.1189031,219.628484 16.29,211.8 C0.791907818,192.111781 -3.72137264,165.930993 4.29,142.19 L60.57,161.08 L7.79,133.66 C10.1144704,128.863787 12.9473856,124.331123 16.24,120.14 C-0.91701534,98.3356417 -4.46179782,68.7757343 7.05340174,43.5330444 C18.5686013,18.2903545 43.2158745,1.59108704 70.9288577,0.255505623 C98.6418409,-1.08007579 124.780745,13.1716358 138.67,37.19 L84.26,77.19 L143.26,46.59 C150.8843,65.5287589 150.370676,86.7718433 141.84,105.32 L97.84,104.99 L138.5,111.67 C136.773952,114.625984 134.846042,117.459377 132.73,120.15 C143.046513,133.179871 148.662986,149.310495 148.670089,165.93 L148.670089,165.93 Z" id="Path" fill="#1E87F0"></path>
                <path d="M148.670161,257.63 C148.664201,293.052611 123.604831,323.524336 88.85,330.37 C87.07,330.73 85.26,331.01 83.43,331.23 C77.7851182,331.905162 72.0817139,331.935357 66.43,331.32 C64.55,331.12 62.6933333,330.843333 60.86,330.49 C52.7759713,328.99627 45.0008153,326.153267 37.86,322.08 C24.5318235,294.878012 12.8898318,266.881794 3,238.25 C5.59795244,228.626163 10.1189031,219.628484 16.29,211.8 C5.98152305,198.735563 0.389155786,182.571613 0.419873092,165.93 C0.419873092,157.61 142.74,199.15 132.8,211.76 C143.11197,224.822527 148.704771,240.987731 148.670161,257.63 L148.670161,257.63 Z" id="Path" fill="#000000"></path>
            </g>
            <g id="Group" opacity="0.1" transform="translate(945.000000, 262.000000)">
                <path d="M69.9,265.58 C67,274.84 63.9,284.03 60.72,293.01 C59.8362038,290.363389 59.3903416,287.590261 59.4,284.8 C59.4,275.87 63.8,268.29 69.9,265.58 L69.9,265.58 Z" id="Path" fill="#3F3D56"></path>
                <path d="M101,106.02 C101,123.57 97.46,151.3 91,183.02 C85.3419697,210.877955 78.2830094,238.432932 69.85,265.58 C66.95,274.84 63.85,284.03 60.67,293.01 C57.02,303.21 53.17,313.13 49.14,322.62 C26.7915692,314.415963 9.71787141,296.013791 3.2082418,273.114374 C-3.30138782,250.214957 1.53904445,225.583243 16.23,206.85 C0.729747286,187.104692 -3.7814244,160.879748 4.23,137.09 L60.51,156.02 L7.73,128.54 C10.0542147,123.734267 12.887077,119.19163 16.18,114.99 C1.93194092,96.8234843 -3.07508948,73.0717756 2.62712289,50.6995997 C8.32933526,28.3274238 24.0945776,9.87014479 45.3,0.74 C68.0167164,16.2376132 85.116476,38.6619749 94.05,64.67 L84.3,71.93 L94.76,66.5 C98.268599,77.2815046 100.316821,88.4845054 100.85,99.81 L97.91,99.81 L100.91,100.3 C101,102.19 101,104.09 101,106.02 Z" id="Path" fill="#1E87F0"></path>
                <path d="M91.05,183.02 C85.3919697,210.877955 78.3330094,238.432932 69.9,265.58 C67,274.84 63.9,284.03 60.72,293.01 C57.07,303.21 53.22,313.13 49.19,322.62 C26.8415692,314.415963 9.76787141,296.013791 3.2582418,273.114374 C-3.25138782,250.214957 1.58904445,225.583243 16.28,206.85 C5.9832656,193.760525 0.396173063,177.584025 0.419924105,160.93 C0.419924105,155.93 52.14,169.03 91.05,183.02 L91.05,183.02 Z" id="Path" fill="#000000"></path>
            </g>
            <path d="M1045.87,362.28 L1045.87,361.81 C1045.33682,350.484505 1043.2886,339.281505 1039.78,328.5 C1039.58,327.89 1039.38,327.27 1039.17,326.67 C1030.23648,300.661975 1013.13672,278.237613 990.42,262.74 C937.743457,226.850114 866.611322,235.64317 824.26,283.28 C822.117552,271.140729 818.729652,259.254596 814.15,247.81 C780.783159,252.028434 747.108262,253.283337 713.52,251.56 C734.102641,261.050642 755.443871,268.801054 777.32,274.73 L776.54,277.63 C751.989295,270.963502 728.112848,262.0249 705.22,250.93 L698.31,247.58 L705.97,248.08 C741.65398,250.41663 777.478695,249.388762 812.97,245.01 C805.291107,226.695717 794.641235,209.774853 781.45,194.93 C723.89,189.13 666.78,177.05 613.45,153.1 L614.68,150.37 C666.59,173.7 722.22,185.69 778.38,191.59 C739.839743,150.275709 684.117934,129.485158 627.934652,135.456832 C571.75137,141.428505 521.644766,173.467468 492.65,221.96 C487.330277,170.377605 465.903832,121.779742 431.41,83.06 C400.701694,95.3297986 368.994809,104.935208 336.64,111.77 C287.980896,122.112187 238.182407,126.075493 188.5,123.56 C209.082641,133.050642 230.423871,140.801054 252.3,146.73 L251.52,149.63 C226.976126,142.962325 203.106426,134.023742 180.22,122.93 L173.31,119.58 L180.97,120.08 C265.654958,125.642197 350.512004,112.197501 429.33,80.73 C426.363333,77.4833333 423.31,74.31 420.17,71.21 C321.75,73.21 214.56,72.21 117.52,36.88 C44.4030522,82.0091273 -0.0803985792,161.827246 -0.000108798273,247.75 C-0.000108798273,294.21 12.77,358.1 35,422.2 C44.905984,450.888297 56.5645985,478.941108 69.91,506.2 C76.7,520 83.91,533.41 91.48,546.25 C100.607191,561.834406 110.655001,576.861042 121.57,591.25 C123.53,593.83 125.513333,596.363333 127.52,598.85 C138.70558,613.006897 151.25963,626.026533 165,637.72 C167.78,640.04 170.576667,642.25 173.39,644.35 C180.930612,650.049988 188.962103,655.069669 197.39,659.35 C212.06,666.7 227.2,671.01 242.69,671.63 C243.93,671.68 245.18,671.71 246.42,671.71 L246.42,672.22 L918.42,672.22 L918.42,671.71 L918.92,671.71 C922.792939,671.695213 926.634882,671.018814 930.28,669.71 C954.04,661.28 975.92,627.43 994.11,584.65 C998.11,575.16 1001.99,565.24 1005.64,555.04 C1008.86,546.04 1011.92,536.87 1014.82,527.61 C1023.25301,500.462932 1030.31197,472.907955 1035.97,445.05 C1042.38,413.33 1045.97,385.6 1045.97,368.05 C1046,366.09 1046,364.19 1045.87,362.28 L1045.87,362.28 Z" id="Path" fill="#1E87F0" opacity="0.1"></path>
            <path d="M334.06,642.79 L353.2,631.53 C350.609546,627.110122 347.300932,623.152629 343.41,619.82 L307.3,631.05 L335.6,614.42 C321.347315,606.61242 304.032639,606.904583 290.051479,615.188574 C276.07032,623.472565 267.497669,638.518929 267.5,654.77 C267.5,680.17 288.09,681.05 313.5,681.05 C338.91,681.05 359.500046,680.17 359.500046,654.77 C359.509144,648.338322 358.163253,641.97686 355.55,636.1 L334.06,642.79 Z" id="Path" fill="#1E87F0"></path>
            <path d="M338.93,667.48 C336.892729,665.439829 334.616201,663.653527 332.15,662.16 C328.67,659.85 325.08,657.49 320.98,656.71 C317.38,656.02 313.67,656.6 309.98,656.39 C303.614503,656.001428 297.621796,653.256405 293.17,648.69 C290.56,645.99 288.5,642.69 285.36,640.6 C281.97,638.38 277.67,637.9 273.65,638.45 C272.483342,638.616316 271.327876,638.853421 270.19,639.16 C268.384286,644.166049 267.463878,649.448244 267.46997,654.77 C267.46997,680.17 288.06,681.05 313.47,681.05 C325.8,681.05 336.99,680.84 345.25,677.73 L343.87,675.15 C342.551515,672.396276 340.891816,669.819375 338.93,667.48 L338.93,667.48 Z" id="Path" fill="#000000" opacity="0.1"></path>
            <circle id="Oval" fill="#3F3D56" cx="547.34" cy="160.77" r="35.75"></circle>
            <path d="M526.6,438.87 C530.29,464.76 525.79,491.16 518.78,516.35 C517.47,521.04 516.06,525.77 513.61,529.98 C511.16,534.19 507.75,537.81 504.87,541.77 C498.87,550.03 495.35,559.77 492.06,569.41 C482.98958,596.084429 475.371738,623.230919 469.24,650.73 C468.870519,651.85716 468.870519,653.07284 469.24,654.2 C470.11,656.2 472.75,656.46 474.92,656.450269 L502.98,656.3 C503.98,654.38 502.13,652.3 500.98,650.46 C496.98,644.24 500.82,636.16 504.35,629.65 C512.92935,613.839087 519.570631,597.051218 524.13,579.65 C526.05,572.32 527.61,564.83 530.73,557.92 C534.5,549.54 540.41,542.33 545.21,534.49 C550.79,525.38 554.86,515.49 558.9,505.56 C564.54,491.78 570.23,477.83 572.45,463.11 C574.54,449.29 573.51,435.21 572.15,421.3 C572.278241,420.46055 571.994849,419.610658 571.388466,419.016165 C570.782083,418.421671 569.926747,418.155163 569.09,418.3 L531.44,416.36 C523.68,415.96 521.84,414.26 523.02,421.88 C523.84,427.57 525.78,433.11 526.6,438.87 L526.6,438.87 Z" id="Path" fill="#3F3D56"></path>
            <path d="M526.6,438.87 C530.29,464.76 525.79,491.16 518.78,516.35 C517.47,521.04 516.06,525.77 513.61,529.98 C511.16,534.19 507.75,537.81 504.87,541.77 C498.87,550.03 495.35,559.77 492.06,569.41 C482.98958,596.084429 475.371738,623.230919 469.24,650.73 C468.870519,651.85716 468.870519,653.07284 469.24,654.2 C470.11,656.2 472.75,656.46 474.92,656.450269 L502.98,656.3 C503.98,654.38 502.13,652.3 500.98,650.46 C496.98,644.24 500.82,636.16 504.35,629.65 C512.92935,613.839087 519.570631,597.051218 524.13,579.65 C526.05,572.32 527.61,564.83 530.73,557.92 C534.5,549.54 540.41,542.33 545.21,534.49 C550.79,525.38 554.86,515.49 558.9,505.56 C564.54,491.78 570.23,477.83 572.45,463.11 C574.54,449.29 573.51,435.21 572.15,421.3 C572.278241,420.46055 571.994849,419.610658 571.388466,419.016165 C570.782083,418.421671 569.926747,418.155163 569.09,418.3 L531.44,416.36 C523.68,415.96 521.84,414.26 523.02,421.88 C523.84,427.57 525.78,433.11 526.6,438.87 L526.6,438.87 Z" id="Path" fill="#000000" opacity="0.1"></path>
            <path d="M534,375.93 C526.35,386.93 518.33,399.59 520.87,412.76 C522.8,422.76 530.42,430.51 537.61,437.76 C566.35,466.62 594.61,498.68 604.39,538.23 C606.91,548.45 608.13,558.94 610.3,569.23 C614.24,587.93 621.3,605.81 628.3,623.58 L647.06,670.93 C658.978882,671.222867 669.808277,664.029911 674.16,652.93 C671.7,652.74 668.49,650.36 667.05,648.36 C659.05,637.29 657.41,623.05 655.36,609.55 C653.09,594.63 650.06,579.83 647.02,565.04 L633.58,499.6 C632.03,492.05 630.48,484.49 628.46,477.05 C620.64,448.23 605.82,421.05 603.53,391.25 C603.19,386.87 602.98,382.06 600.01,378.81 C596.89,375.38 591.77,374.81 587.14,374.54 C568.41,373.34 552.25,371.51 534,375.93 L534,375.93 Z" id="Path" fill="#3F3D56"></path>
            <path d="M483.47,650.06 C481.430495,649.575747 479.345666,649.307602 477.25,649.26 C473.177605,649.404258 469.411933,651.461293 467.09,654.81 C465.921723,656.682113 465.003904,658.699298 464.36,660.81 L461.65,668.59 C460.85,670.87 460.07,673.5 461.26,675.59 C462.145153,676.888493 463.419714,677.872426 464.9,678.4 C471.46,681.32 478.9,681.48 486,682.18 C492.94,682.86 499.82,684.08 506.67,685.36 C509.03,685.81 511.38,686.26 513.77,686.5 C519.11,687.04 524.49,686.5 529.83,686.02 L535.34,685.49 C537.184393,685.410455 539.008657,685.073875 540.76,684.49 C542.527936,683.890295 543.973338,682.593047 544.76,680.9 C546.12,677.53 543.2,673.54 539.63,672.84 C538.18,672.56 536.63,672.69 535.21,672.5 C533.54392,672.214365 531.918692,671.727468 530.37,671.05 C523.37,668.28 516.2,665.48 510,661.12 C508.28,659.91 506.48,658.22 506.67,656.12 C506.848773,655.220552 507.148142,654.349353 507.56,653.53 C508.400673,651.38419 508.42912,649.005299 507.64,646.84 C507.3,645.92 506.64,644.95 505.71,644.84 C503.07,644.52 503.39,648.37 503,649.84 C502.47,651.84 501.51,652.02 499.63,651.84 C494.23,651.35 488.83,651.08 483.47,650.06 L483.47,650.06 Z M641.34,676.93 C641.388202,680.837405 642.731753,684.618341 645.16,687.68 C645.902393,688.593334 646.829278,689.339613 647.88,689.87 C649.461783,690.521327 651.174462,690.79193 652.88,690.66 C657.640224,690.556437 662.343843,689.604877 666.77,687.85 C668.329306,687.143816 669.932652,686.539221 671.57,686.04 C673.63065,685.618461 675.714216,685.317947 677.81,685.14 C686.08,683.95 693.34,679.07 701.33,676.6 C703.717284,676.008478 706.057111,675.239678 708.33,674.3 C711.49,672.81 714.05,670.3 716.56,667.87 C718.039925,666.557991 719.314169,665.030921 720.34,663.34 C721.81,660.61 721.9,657.34 721.96,654.25 C722.013933,653.76679 721.930761,653.278156 721.72,652.84 C721.491651,652.524447 721.18004,652.278621 720.82,652.13 C718.39,650.93 715.51,651.53 712.82,652 C703.1,653.73 693.15,653.41 683.28,653.09 C681.354713,653.354644 679.492004,652.291997 678.74,650.5 L674.99,644.5 C673.92,642.78 672.22,640.81 670.28,641.4 C668.73,641.87 668.1,643.77 668.16,645.4 C668.22,647.03 668.72,648.65 668.41,650.24 C667.963145,652.008862 666.80506,653.514373 665.21,654.4 C663.634761,655.256536 661.953666,655.902077 660.21,656.32 C654.69,657.88 648.27,659.65 644,663.71 C640.86,666.59 641.15,673.04 641.34,676.93 L641.34,676.93 Z" id="Shape" fill="#F2F2F2"></path>
            <path d="M639.4,280.19 C641.553381,278.544552 643.401392,276.534078 644.86,274.25 C646.116693,271.672895 646.905615,268.893047 647.19,266.04 L648.76,256.12 C649.63,250.65 650.65,244.86 654.3,240.69 C657.95,236.52 665.22,235.03 668.93,239.15 C670.55,240.94 671.19,243.4 671.59,245.79 C673.900878,260.224688 669.555518,274.929797 659.77,285.79 C655.28,290.71 649.77,294.62 645.02,299.27 C640.88,303.27 637.29,307.86 633.47,312.21 C624.23219,322.717903 613.651293,331.964 602,339.71 C602.14,332.27 603.09,324.29 602,316.9 C601.19,311.56 599,308.68 604.17,305.19 C616.17,297.03 628.28,289.65 639.4,280.19 L639.4,280.19 Z M538.56,207.01 C538.17,212.33 535.96,217.77 531.56,220.84 C544.02,225.2 556.31,230.006667 568.43,235.26 C566.09,233.01 565.38,229.56 565.27,226.32 C564.96,217.85 567.89,209.52 572.17,202.22 C572.850878,201.294023 573.243902,200.187991 573.3,199.04 C573.16,196.68 570.36,195.59 568.06,195.04 C560.212995,193.136454 552.204441,191.974678 544.14,191.57 C540.69,191.46 536.6,190.37 537.38,194.76 C538.12,198.86 538.87,202.86 538.56,207.01 L538.56,207.01 Z" id="Shape" fill="#FBBEBE"></path>
            <circle id="Oval" fill="#FBBEBE" cx="562.66" cy="180.63" r="29.23"></circle>
            <path d="M591.6,259.58 C590.579482,257.385151 589.336296,255.300888 587.89,253.36 C582.59,245.75 577.15,238.15 570.35,231.85 C565.198998,227.256278 559.624051,223.161288 553.7,219.62 C550.503583,217.428916 546.989158,215.742532 543.28,214.62 C541.078995,214.132224 538.841324,213.827847 536.59,213.71 L529,213.09 C528.334473,213.00176 527.659041,213.022023 527,213.15 C524.94,213.67 524,216.23 524.44,218.3 C524.88,220.37 526.44,222.05 527.82,223.62 C528.16,239.11 521.27,254.39 520.34,269.86 C518.71,296.91 535.22,322.07 536.54,349.14 C536.676083,350.363247 536.546464,351.601455 536.16,352.77 C535.94,353.33 535.61,353.84 535.36,354.39 C534.58,356.09 534.61,358.02 534.47,359.89 C533.925161,366.559368 531.004801,372.811704 526.24,377.51 C527.478328,379.047154 529.070321,380.261735 530.88,381.05 C534.07,382.44 537.88,382.56 541.27,383.53 C550.11,386.11 559.17,388.71 568.36,388.16 C569.501716,385.675532 570.20864,383.013572 570.45,380.29 C571.75,379.48 573.25,381.21 573.45,382.73 C573.65,384.25 573.36,386.02 574.45,387.12 C575.54,388.22 576.92,388.05 578.25,387.88 C583.86,387.17 589.25,385.28 594.75,384.01 C600.25,382.74 606.13,382.13 611.48,383.95 C612.56,382.58 612.1,380.55 611.22,379.05 C610.34,377.55 609.09,376.23 608.59,374.56 C608.33839,373.597837 608.230555,372.603735 608.27,371.61 C608.27,363.06 610.03,354.42 608.36,346.03 C607.87,343.57 607.09,341.17 606.59,338.7 C605.59,333.91 605.74,328.97 605.87,324.08 C606,319.19 605.41,313.9 605.31,308.94 C605.306901,306.890248 605.173298,304.842773 604.91,302.81 C604.57,300.68 603.91,298.6 603.73,296.45 C603.19,290.99 605.39,285.57 605.06,280.09 C604.51,271.77 594.84,267.25 591.6,259.58 L591.6,259.58 Z" id="Path" fill="#FF6F61"></path>
            <path d="M525.63,255.66 C518.55,274.44 515.09,294.36 511.63,314.14 L503.63,360.6 C501.36,373.73 499.08,386.94 499.17,400.26 C499.17,404 499.41,407.81 498.43,411.42 C497.15,416.16 493.97,420.11 491.56,424.42 C486.669952,433.221522 485.041062,443.465818 486.96,453.35 C487.78,457.5 490.02,462.21 494.23,462.69 C497.69,463.07 500.68,460.32 502.7,457.48 C507.34,450.97 509.64,443.11 511.7,435.37 C518.331639,410.075464 522.969192,384.299762 525.57,358.28 C525.817208,354.986308 526.281551,351.712526 526.96,348.48 C527.843168,345.147378 528.97295,341.885048 530.34,338.72 C533.4,331.133333 536.463333,323.546667 539.53,315.96 C546.6,298.43 553.71,280.82 563.42,264.6 C553.82,261.84 543.83,258.6 534.23,255.87 C531.46,255.05 528.49,255.54 525.63,255.66 L525.63,255.66 Z" id="Path" fill="#FBBEBE"></path>
            <path d="M542.27,269.93 C535.55,268.48 528.6,268.93 521.74,268.76 C520.765782,268.830846 519.795462,268.577719 518.98,268.04 C517.59,266.85 518.18,264.62 518.88,262.93 L522.2,254.93 C522.744917,253.276259 523.653904,251.765837 524.86,250.51 C526.55,249.01 528.93,248.64 531.17,248.37 C538.46,247.53 545.96,247.25 553.03,249.22 C560.1,251.19 566.75,255.67 569.91,262.3 C571.23,265.06 571.84,268.54 570.09,271.05 C567.49,274.78 561.66,278.95 557.31,276.91 C552.1,274.44 548.11,271.17 542.27,269.93 L542.27,269.93 Z" id="Path" fill="#FF6F61"></path>
            <path d="M578,135.23 C572.223844,135.168127 566.556458,136.802281 561.7,139.93 C552.338999,131.059734 538.926207,127.918619 526.6,131.71 C524.81789,121.483686 515.650436,114.219346 505.287503,114.821861 C494.924569,115.424376 486.660758,123.702194 486.075793,134.066133 C485.490828,144.430071 492.770683,153.58521 503,155.35 C499.411267,167.607783 502.63459,180.849007 511.455774,190.085832 C520.276959,199.322658 533.355857,203.15179 545.765775,200.130833 C558.175692,197.109875 568.031267,187.697783 571.62,175.44 C573.729358,175.871761 575.876907,176.089531 578.03,176.09 C592.13,176.09 603.57,166.94 603.57,155.66 C603.57,144.38 592.08,135.23 578,135.23 L578,135.23 Z" id="Path" fill="#3F3D56"></path>
            <path d="M583.09,165.87 C580.936592,165.875837 578.788401,165.658002 576.68,165.22 C575.678491,168.877542 574.098544,172.351401 572,175.51 C573.977388,175.89105 575.986238,176.085238 578,176.09 C591.18,176.09 602,168.09 603.39,157.85 C598.7,162.73 591.35,165.87 583.09,165.87 L583.09,165.87 Z M542.23,191.41 C530.88702,191.393621 520.222907,186.002692 513.484172,176.878388 C506.745436,167.754085 504.72947,155.976085 508.05,145.13 C498.282901,143.411617 491.160469,134.92711 491.16,125.01 C491.157954,123.78248 491.268416,122.557356 491.49,121.35 C486.409311,126.838977 484.734224,134.665545 487.123188,141.75322 C489.512151,148.840894 495.583233,154.056548 502.95,155.35 C497.218447,174.169438 507.769076,194.083308 526.558979,199.910957 C545.348882,205.738606 565.316408,195.289877 571.24,176.53 C564.534051,185.876434 553.733284,191.416434 542.23,191.41 L542.23,191.41 Z" id="Shape" fill="#000000" opacity="0.1"></path>
            <rect id="Rectangle" fill="#3A3768" transform="translate(670.957300, 253.468317) rotate(35.510000) translate(-670.957300, -253.468317) " x="670.6223" y="250.698317" width="1" height="5.54" rx="0.34"></rect>
            <rect id="Rectangle" fill="#3A3768" transform="translate(656.264646, 235.360989) rotate(35.510000) translate(-656.264646, -235.360989) " x="656.074646" y="234.450989" width="1" height="1.82" rx="0.19"></rect>
            <rect id="Rectangle" fill="#3A3768" transform="translate(653.925862, 238.643423) rotate(35.510000) translate(-653.925862, -238.643423) " x="653.715862" y="237.058423" width="1" height="3.17" rx="0.21"></rect>
            <rect id="Rectangle" fill="#3A3768" transform="translate(651.438603, 242.141862) rotate(35.510000) translate(-651.438603, -242.141862) " x="651.238603" y="240.541862" width="1" height="3.2" rx="0.2"></rect>
            <rect id="Rectangle" fill="#3A3768" transform="translate(657.120300, 256.723563) rotate(35.510000) translate(-657.120300, -256.723563) " x="645.8803" y="233.878563" width="22.48" height="45.69" rx="2.52"></rect>
            <rect id="Rectangle" fill="#000000" opacity="0.1" transform="translate(657.120300, 256.723563) rotate(35.510000) translate(-657.120300, -256.723563) " x="645.8803" y="233.878563" width="22.48" height="45.69" rx="2.52"></rect>
            <rect id="Rectangle" fill="#3A3768" transform="translate(656.194297, 254.859080) rotate(35.510000) translate(-656.194297, -254.859080) " x="644.954297" y="232.01408" width="22.48" height="45.69" rx="2.52"></rect>
            <path d="M675.28,241.93 L673.19,240.43 L673.01,240.68 C672.546857,241.317008 671.661946,241.471867 671.01,241.03 L664.33,236.26 C663.670339,235.787598 663.518163,234.870065 663.99,234.21 L664.17,233.96 L662.17,232.56 C661.785828,232.283012 661.30711,232.170548 660.839789,232.247496 C660.372468,232.324445 659.955081,232.584461 659.68,232.97 L636.6,265.32 C636.028863,266.121567 636.212014,267.233871 637.01,267.81 L650.15,277.18 C650.535399,277.455972 651.014955,277.566823 651.48237,277.487982 C651.949786,277.409141 652.366448,277.14712 652.64,276.76 L675.72,244.42 C675.993967,244.032147 676.101603,243.550905 676.018973,243.083294 C675.936343,242.615683 675.670297,242.200473 675.28,241.93 L675.28,241.93 Z" id="Path" fill="#1E87F0"></path>
            <rect id="Rectangle" fill="#E6E8EC" transform="translate(667.991997, 237.295264) rotate(35.510000) translate(-667.991997, -237.295264) " x="666.421997" y="236.975264" width="3.14" height="1" rx="0.32"></rect>
            <circle id="Oval" fill="#E6E8EC" cx="669.9" cy="238.72" r="1"></circle>
        </g>
    </g>
</svg>