<?xml version="1.0" encoding="UTF-8"?>
<svg width="1000px" height="798px" viewBox="0 0 1000 798" version="1.1" xmlns="http://www.w3.org/2000/svg" xmlns:xlink="http://www.w3.org/1999/xlink">
    <!-- Generator: Sketch 58 (84663) - https://sketch.com -->
    <title>Slice 1</title>
    <desc>Created with Sketch.</desc>
    <defs>
        <linearGradient x1="49.9847708%" y1="99.9903132%" x2="49.9847708%" y2="0.00514707522%" id="linearGradient-1">
            <stop stop-color="#808080" stop-opacity="0.25" offset="0%"></stop>
            <stop stop-color="#808080" stop-opacity="0.12" offset="54%"></stop>
            <stop stop-color="#808080" stop-opacity="0.1" offset="100%"></stop>
        </linearGradient>
    </defs>
    <g id="Page-1" stroke="none" stroke-width="1" fill="none" fill-rule="evenodd">
        <g id="sitting-at-computer">
            <path d="M321.21,31.27 C351.99,3.84 400.32,-1.73 444.3,0.43 C582.46,7.3 707.17,73.99 815.04,149.43 C854.09,176.74 892.54,206.17 917.89,243.78 C969.49,320.35 954.19,426.41 882.43,489.48 C858.02,510.94 828.43,527.39 798.04,541.98 C744.04,567.91 685.73,588.72 624.42,594.65 C580.69,598.87 536.42,595.44 492.96,589.54 C371.5,573.08 252.31,536.63 152.4,474.35 C108.58,447.02 67.27,413.05 49.21,368.83 C31.15,324.61 42.71,268.63 87.5,242.43 C106.01,231.61 128.14,226.72 149.8,222.13 C181.69,215.37 214.09,208.71 242.86,194.98 C272.58,180.79 307.78,153.35 301.86,121.98 C295.5,88.26 290.5,58.63 321.21,31.27 Z" id="Path" fill="#1E87F0" fill-rule="nonzero" opacity="0.1"></path>
            <circle id="Oval" fill="#1E87F0" fill-rule="nonzero" opacity="0.1" cx="174.08" cy="129.4" r="31.5"></circle>
            <circle id="Oval" fill="#1E87F0" fill-rule="nonzero" opacity="0.1" cx="108.09" cy="54.4" r="19.5"></circle>
            <circle id="Oval" fill="#1E87F0" fill-rule="nonzero" opacity="0.1" cx="925.57" cy="114.4" r="12"></circle>
            <ellipse id="Oval" fill="#1E87F0" fill-rule="nonzero" opacity="0.1" cx="689.92" cy="788.85" rx="84.24" ry="8.4"></ellipse>
            <polygon id="Path" fill="#5F5D7E" fill-rule="nonzero" points="214 487.31 213.63 507.26 210.67 668.97 185.33 728.31 98 729.31 98 496.5 189.14 489.28 214 487.31"></polygon>
            <polygon id="Path" fill="#000000" fill-rule="nonzero" opacity="0.1" points="214 487.31 213.63 507.26 210.67 668.97 185.33 728.31 98 729.31 98 496.5 189.14 489.28 214 487.31"></polygon>
            <polygon id="Path" fill="#5F5D7E" fill-rule="nonzero" points="214 487.31 213.63 507.26 210.67 668.97 185.33 728.31 192 507.64 191.98 507.5 189.14 489.28 214 487.31"></polygon>
            <polygon id="Path" fill="#000000" fill-rule="nonzero" opacity="0.1" points="189.14 489.28 214 487.31 213.63 507.26 191.98 507.5 98 508.55 98 496.5"></polygon>
            <polygon id="Path" fill="#5F5D7E" fill-rule="nonzero" points="999 496.5 999 727.97 978.67 727.97 897.33 668.64 897.33 489.97 970 483.14 974.46 485.19 978.67 487.13"></polygon>
            <polygon id="Path" fill="#000000" fill-rule="nonzero" opacity="0.1" points="978.67 485.19 999 485.19 999 727.97 978.67 727.97"></polygon>
            <polygon id="Path" fill="#000000" fill-rule="nonzero" opacity="0.1" points="999 485.19 999 498.5 978.67 498.73 897.33 499.63 897.33 489.97 970 483.14 974.46 485.19 978.67 487.13 978.67 485.19"></polygon>
            <polygon id="Path" fill="#5F5D7E" fill-rule="nonzero" points="999 477.64 999 496.5 0 507.64 0 483.64 94 464.64 912 458.64"></polygon>
            <polygon id="Path" fill="#000000" fill-rule="nonzero" opacity="0.1" points="999 477.64 999 496.5 0 507.64 0 483.64"></polygon>
            <rect id="Rectangle" fill="#474157" fill-rule="nonzero" x="365.5" y="194.97" width="349.92" height="271.69" rx="22.82"></rect>
            <polygon id="Path" fill="#EDEDF4" fill-rule="nonzero" points="393.66 219.48 687.78 219.48 687.78 441.11 393.66 441.11"></polygon>
            <circle id="Oval" fill="#E6E8EC" fill-rule="nonzero" cx="382.18" cy="330.29" r="4.82"></circle>
            <circle id="Oval" fill="#E6E8EC" fill-rule="nonzero" cx="700.81" cy="330.81" r="7.95"></circle>
            <path d="M803.88,509.14 C803.679884,507.917144 803.299053,506.730839 802.75,505.62 C803.51,503.03 804,501.44 804,501.44 C804,501.44 804,501.06 803.88,500.44 C802.647174,492.862 796.00503,487.36034 788.33,487.56 C782.33,487.67 770.95,488.07 758.33,489.49 C759.05,484.44 759.91,478.4 760.81,472.18 L762.46,472.36 C762.84,472.36 763.24,472.36 763.64,472.42 L764.17,472.42 C765.485393,472.502354 766.785954,472.104368 767.83,471.3 C768.349625,470.794575 768.581078,470.062201 768.446275,469.349956 C768.311472,468.637711 767.828388,468.040575 767.16,467.76 C770.156317,468.058339 773.100915,466.824842 774.99,464.48 C776.729757,462.045545 776.729757,458.774455 774.99,456.34 C772.88,453.34 768.41,451.34 768.17,447.81 C768.04,445.81 769.38,444.01 770.43,442.24 C775.631195,433.158106 774.129474,421.721291 766.76,414.29 C765.352588,412.893938 763.870406,411.57533 762.32,410.34 C760.12,402.26 757.82,395.04 757.14,394.81 C756.26,394.52 754.75,392.62 753.31,390.99 C753.441754,389.61507 753.418272,388.229676 753.24,386.86 C752.18,379.86 745.24,374.86 741.42,368.68 C737.6,362.5 736.91,354.93 737.89,347.85 C738.87,340.77 741.34,333.92 743.35,327.01 C744.85,321.88 746.1,316.43 744.42,311.34 C743.23,307.71 740.64,304.57 737.97,301.62 C731.56,294.53 724.17,287.89 715.05,283.62 C708.710611,280.631666 701.767151,279.14647 694.76,279.28 L694.69,279.28 L693.59,279.34 L692.81,279.39 L692.03,279.47 L691.2,279.55 C690.35,279.66 689.51,279.79 688.67,279.96 C682.57876,278.605784 676.359895,277.908466 670.12,277.88 L669.31,277.88 C667.459208,277.770564 665.616842,278.205085 664.01,279.13 C661.79,280.68 661.51,283.46 660.84,285.88 C659.636566,289.929994 657.099179,293.454142 653.64,295.88 C651.25,297.6 648.44,298.88 646.16,300.68 C643.88,302.48 642.1,305.18 642.71,307.84 C643.22,310.07 645.3,311.73 647.71,312.74 C647.42,313.1 647.12,313.45 646.84,313.82 C647.31,314.01 647.84,314.18 648.27,314.32 C651.27,315.21 654.5,315.32 657.54,316.13 C658.376862,316.353919 659.198541,316.631152 660,316.96 C657.295923,322.046273 655.884459,327.719602 655.89,333.48 C655.913318,346.51065 663.056012,358.486745 674.51,364.7 L674.51,365.7 C674.82,376.14 674.03,388.84 668.69,390.99 C663.35,393.14 658.24,395.57 655.09,397.14 L654.09,397.67 C653.26,397.29 652.43,396.89 651.62,396.47 C651.62,396.47 647.37,395.97 648.11,399.21 C648.11,399.21 635.26,397.21 628.21,402.7 C621.16,408.19 609.59,419.65 607.32,422.64 C605.05,425.63 587.5,432.17 587.5,432.17 C587.5,432.17 593.03,424.44 590.64,414.97 C590.64,414.97 588,403.55 589.26,398.97 C590.52,394.39 593.79,377.39 593.79,377.39 C593.79,377.39 594.25,359.45 584.46,351.22 C574.67,342.99 567.86,336.22 571.64,344.22 C573.292067,347.887346 575.141439,351.462577 577.18,354.93 C577.18,354.93 553.77,360.49 562.08,369.17 C570.39,377.85 572.65,377.86 572.65,377.86 C572.65,377.86 569.88,399.29 569.37,403.28 C568.86,407.27 564.37,437.67 564.37,437.67 C564.37,437.67 564.12,452.13 566.64,454.37 C566.64,454.37 568.29,463.68 578.72,463.37 C578.72,463.37 598.6,462.87 604.14,460.63 C609.68,458.39 628.8,446.42 630.82,447.17 C630.966471,447.228974 631.099228,447.317478 631.21,447.43 C631.317366,447.522353 631.417647,447.622634 631.51,447.73 C629.51,452.16 624.77,467.2 626.79,474.59 C626.79,474.59 625.03,495.52 635.6,502.25 C635.6,502.25 650.95,528.17 645.16,542.12 C644.7,543.25 644.29,544.29 643.91,545.3 C635.12,538.01 621.71,531.3 601.23,527.59 C599.14,527.21 597.06,526.75 595,526.25 C589.18,524.84 573.17,523.55 565.55,548.86 C563.772953,554.743431 561.511898,560.469653 558.79,565.98 C555.79,572.05 552.46,580.75 552.39,589.38 C552.22,601.48 558.47,613.47 581.15,617.87 C581.4,626.87 582.43,637.59 585.51,645.3 C591.8,661 601.87,686.42 601.87,686.42 C601.87,686.42 613.95,712.34 614.71,722.8 C615.2,729.65 615.92,738.63 615.42,744.8 C615.42,745.18 615.36,745.54 615.32,745.9 C614.283689,747.018603 613.152832,748.045743 611.94,748.97 C610.18,749.97 604.39,756.2 604.39,757.69 C604.402291,759.117889 604.529367,760.542479 604.77,761.95 C602.03,764.34 600.53,766.95 600.53,769.55 C600.53,783.07 638.9,794.03 686.23,794.03 C733.56,794.03 771.92,783.03 771.92,769.55 C771.92,757.21 739.92,747.01 698.34,745.33 C707.01,741.87 714.71,738.24 717.9,735.33 C718.584599,734.796622 719.107404,734.083391 719.41,733.27 L711.36,714.58 C711.36,714.58 710.73,714.72 709.8,714.99 L709.24,714.15 C705.66,708.7 698.77,697.84 698.77,694.89 C698.77,693.8 696.95,686.83 694.31,677.28 L694.31,646.63 C720.57,650.63 754.41,645.19 754.41,645.19 L754.56,645.11 L755.22,645.11 L755.22,644.75 C759.77,642.23 782.53,628.9 789.28,611.22 C791.28,606.06 788.79,598.67 783.84,590.77 C787.3,582.18 795.84,559.99 794.99,551.14 C794.99,550.67 794.93,550.14 794.93,549.62 C795.010582,548.715687 795.043961,547.807788 795.03,546.9 C796.03,533.9 804.03,510.15 804.03,510.15 C804.03,510.15 803.98,509.74 803.88,509.14 L803.88,509.14 Z M633.88,451.38 C635.7,454.58 637.65,458.67 638.42,460.33 C639.19,461.99 635.76,455.43 633.93,451.38 L633.88,451.38 Z M635.78,731.48 L635.59,731.55 L635.59,730.55 C635.481386,727.941991 635.544857,725.329657 635.78,722.73 C635.807721,721.328695 635.513503,719.939716 634.92,718.67 C631.837936,710.926845 629.777278,702.815316 628.79,694.54 C627.79,685.82 626.96,676.31 627.48,673.89 C628.26,670.18 628.9,642.08 627.93,628.23 L643.41,631.71 L661.41,668.41 C661.41,668.41 672.99,686.33 676.58,700.47 L676.58,714.63 C675.53018,718.84844 673.694822,722.831267 671.17,726.37 C668.78,729.64 666.45,732.95 664.29,736.37 C663.63,737.43 662.9,738.52 662.17,739.54 C661.93,739.54 650.1,740.23 648.09,742.45 C646.85,743.82 644.69,745.98 644.33,748.15 L643.82,748.23 C641.5,741.32 635.83,731.48 635.83,731.48 L635.78,731.48 Z" id="Shape" fill="url(#linearGradient-1)" fill-rule="nonzero"></path>
            <path d="M711.93,718.63 L707.93,731.63 L690.93,746.38 L665.93,753.56 C665.93,753.56 654.18,747.13 658.18,745.88 C659.29,745.53 660.61,744.26 661.95,742.6 C660.55,747.7 671.68,741.13 671.68,741.13 C671.68,741.13 700.43,720.63 703.43,718.38 C705.397295,717.075217 707.556791,716.086573 709.83,715.45 C711.08,717.4 711.93,718.63 711.93,718.63 Z" id="Path" fill="#000000" fill-rule="nonzero" opacity="0.1"></path>
            <path d="M711.93,718.63 L707.93,731.63 L690.93,746.38 L665.93,753.56 C665.93,753.56 654.18,747.13 658.18,745.88 C659.29,745.53 660.61,744.26 661.95,742.6 C663.156673,741.06006 664.271924,739.450627 665.29,737.78 C667.43,734.34 669.75,731.02 672.12,727.78 C675.578097,722.857513 677.747506,717.146915 678.43,711.17 C680.18,697.42 662.43,669.67 662.43,669.67 L630.18,603.42 L675.18,608.92 C675.18,608.92 699.43,692.17 699.43,696.17 C699.43,699.17 706.27,710.02 709.83,715.49 C711.08,717.4 711.93,718.63 711.93,718.63 L711.93,718.63 Z" id="Path" fill="#FDC2CC" fill-rule="nonzero"></path>
            <g id="No-WWW" transform="translate(454.970703, 291.000000)">
                <path d="M0,13.0507812 L12.5976562,13.0507812 L17.1386719,37.0449219 L23.7597656,13.0507812 L36.328125,13.0507812 L42.9785156,37.0449219 L47.5195312,13.0507812 L60.0585938,13.0507812 L50.5957031,56 L37.5878906,56 L30.0585938,28.9589844 L22.5585938,56 L9.55078125,56 L0,13.0507812 Z M60,13.0507812 L72.5976562,13.0507812 L77.1386719,37.0449219 L83.7597656,13.0507812 L96.328125,13.0507812 L102.978516,37.0449219 L107.519531,13.0507812 L120.058594,13.0507812 L110.595703,56 L97.5878906,56 L90.0585938,28.9589844 L82.5585938,56 L69.5507812,56 L60,13.0507812 Z M120,13.0507812 L132.597656,13.0507812 L137.138672,37.0449219 L143.759766,13.0507812 L156.328125,13.0507812 L162.978516,37.0449219 L167.519531,13.0507812 L180.058594,13.0507812 L170.595703,56 L157.587891,56 L150.058594,28.9589844 L142.558594,56 L129.550781,56 L120,13.0507812 Z" id="WWW" fill="#1E87F0" fill-rule="nonzero"></path>
                <g id="No-Symbol" transform="translate(56.029297, 0.000000)" fill="#D8263D" stroke="#D8263D" stroke-width="2.5">
                    <path d="M34.49575,61.245875 C19.7219621,61.245875 7.74575,49.2699043 7.74575,34.496414 C7.74575,19.7229238 19.7219621,7.745875 34.49575,7.745875 C49.2695379,7.745875 61.24575,19.7229238 61.24575,34.496414 C61.24575,49.2699043 49.2695379,61.245875 34.49575,61.245875 Z M34.49575,0.995875 C15.9944443,0.995875 0.99575,15.9948111 0.99575,34.496415 C0.99575,52.998019 15.9944443,67.995875 34.49575,67.995875 C52.9970557,67.995875 67.99575,52.998019 67.99575,34.496415 C67.99575,15.9948111 52.9970557,0.995875 34.49575,0.995875 L34.49575,0.995875 Z" id="Fill-41"></path>
                    <polyline id="Fill-48" points="54.5021095 59.5 10.25 15.2479951 14.99897 10.5 59.25 54.7520049 54.5021095 59.5"></polyline>
                </g>
            </g>
            <ellipse id="Oval" fill="#5F5D7E" fill-rule="nonzero" cx="686.97" cy="771.05" rx="85.12" ry="24.55"></ellipse>
            <path d="M719.93,734.63 C719.626308,735.442905 719.107923,736.158276 718.43,736.7 C712.25,742.37 689.14,750.8 674.86,755.38 C671.11701,756.686477 667.30042,757.771684 663.43,758.63 C659.93,758.88 652.68,756.63 647.68,753.56 C642.68,750.49 647.18,746.13 649.2,743.88 C651.22,741.63 663.2,740.96 663.2,740.96 C657.45,750.53 671.69,742.13 671.69,742.13 C671.69,742.13 700.44,721.63 703.44,719.38 C706.44,717.13 711.94,715.88 711.94,715.88 L719.93,734.63 Z" id="Path" fill="#1E87F0" fill-rule="nonzero"></path>
            <path d="M719.93,734.63 C719.626308,735.442905 719.107923,736.158276 718.43,736.7 C712.25,742.37 689.14,750.8 674.86,755.38 C671.11701,756.686477 667.30042,757.771684 663.43,758.63 C659.93,758.88 652.68,756.63 647.68,753.56 C642.68,750.49 647.18,746.13 649.2,743.88 C651.22,741.63 663.2,740.96 663.2,740.96 C657.45,750.53 671.69,742.13 671.69,742.13 C671.69,742.13 700.44,721.63 703.44,719.38 C706.44,717.13 711.94,715.88 711.94,715.88 L719.93,734.63 Z" id="Path" fill="#000000" fill-rule="nonzero" opacity="0.3"></path>
            <path d="M718.43,736.72 C712.25,742.39 689.14,750.82 674.86,755.4 C687.8,744.44 709.5,738.71 718.43,736.72 Z" id="Path" fill="#000000" fill-rule="nonzero" opacity="0.1"></path>
            <ellipse id="Oval" fill="#000000" fill-rule="nonzero" opacity="0.1" cx="686.97" cy="763.14" rx="17.03" ry="4.91"></ellipse>
            <polygon id="Path" fill="#5F5D7E" fill-rule="nonzero" points="677.5 633.64 695 633.64 695 763.14 677.5 763.14"></polygon>
            <path d="M695,640.06 L695,655.06 C691.5,653.98 683.51,649.43 677.5,645.85 L677.5,633.63 L681.15,633.63 L695,640.06 Z" id="Path" fill="#000000" fill-rule="nonzero" opacity="0.1"></path>
            <path d="M653.77,577.26 C653.77,577.26 711.55,562.39 725.93,551.26 C740.31,540.13 796.78,592.5 789.32,612.26 C781.86,632.02 754.7,646.33 754.7,646.33 C754.7,646.33 679.59,658.55 666.8,633.06 C654.01,607.57 653.77,577.26 653.77,577.26 L653.77,577.26 Z" id="Path" fill="#474157" fill-rule="nonzero"></path>
            <path d="M653.77,577.26 C653.77,577.26 711.55,562.39 725.93,551.26 C740.31,540.13 796.78,592.5 789.32,612.26 C781.86,632.02 754.7,646.33 754.7,646.33 C754.7,646.33 679.59,658.55 666.8,633.06 C654.01,607.57 653.77,577.26 653.77,577.26 L653.77,577.26 Z" id="Path" fill="#000000" fill-rule="nonzero" opacity="0.1"></path>
            <path d="M648.77,571.26 C648.77,571.26 706.55,556.39 720.93,545.26 C735.31,534.13 791.78,586.5 784.32,606.26 C776.86,626.02 749.7,640.33 749.7,640.33 C749.7,640.33 674.59,652.55 661.8,627.06 C649.01,601.57 648.77,571.26 648.77,571.26 L648.77,571.26 Z" id="Path" fill="#474157" fill-rule="nonzero"></path>
            <path d="M595.18,434.9 L588.93,432.63 C588.93,432.63 594.43,424.88 592.06,415.38 C592.06,415.38 589.43,403.92 590.68,399.28 C591.93,394.64 595.18,377.63 595.18,377.63 C595.18,377.63 595.64,359.63 585.91,351.38 C576.18,343.13 569.43,336.38 573.18,344.38 C574.817633,348.060134 576.653663,351.648738 578.68,355.13 C578.68,355.13 555.43,360.7 563.68,369.42 C571.93,378.14 574.18,378.13 574.18,378.13 C574.18,378.13 571.43,399.63 570.93,403.63 C570.43,407.63 565.93,438.13 565.93,438.13 C565.93,438.13 565.68,452.63 568.18,454.88 C569.329127,460.48254 574.479806,464.345549 580.18,463.88 C581.96,463.85 603.18,440.4 595.18,434.9 L595.18,434.9 Z M746.18,388.9 L746.18,402.9 L731.68,407.63 L706.98,425.81 L700.43,430.63 L671.18,418.88 L652.68,399.38 C652.68,399.38 653.58,398.89 655.14,398.08 L656.14,397.55 C659.27,395.98 664.2,393.55 669.65,391.38 C675.1,389.21 675.74,376.49 675.43,366.01 L675.43,365.01 C675.18,357.66 674.43,351.65 674.43,351.65 C674.43,351.65 677.48,351.07 681.92,350.41 C694.23,348.58 717.2,346.11 715.18,353.65 C714.590221,356.213178 714.590221,358.876822 715.18,361.44 C715.24,361.72 715.3,362.01 715.37,362.29 C717.45,371.38 723.89,380.9 723.89,380.9 L743.89,388.1 L744.45,388.3 L746.18,388.9 Z" id="Shape" fill="#FDC2CC" fill-rule="nonzero"></path>
            <path d="M746.18,393.15 L746.18,388.9 C747.751775,388.629438 749.358225,388.629438 750.93,388.9 C752.68,389.4 756,394.65 757.5,395.15 C759,395.65 768.18,429.9 767.18,432.9 C766.18,435.9 756.73,503.63 756.73,503.63 L737.68,524.63 L733.93,466.88 L746.18,432.63 L746.18,393.15 Z M647.43,550.4 C647.43,550.4 630.02,554.15 632.23,559.65 C634.44,565.15 644.18,565.4 644.18,565.4 L647.43,550.4 Z M671.68,439.35 L658.43,467.9 L642.68,479.4 L639.93,461.63 C639.93,461.63 634.61,449.88 632.32,447.89 C632.209228,447.777478 632.076471,447.688974 631.93,447.63 C629.93,446.88 610.93,458.88 605.43,461.13 C599.93,463.38 580.18,463.88 580.18,463.88 L588.93,432.63 C588.93,432.63 606.43,426.13 608.68,423.13 C610.93,420.13 622.43,408.63 629.43,403.13 C636.43,397.63 649.2,399.63 649.2,399.63 L649.4,399.71 L652.68,401.13 L662.18,424.38 L671.68,439.35 Z M636.93,724.15 C636.69473,726.756335 636.63126,729.375328 636.74,731.99 C636.81,734.78 636.93,737.15 636.93,737.15 L631.18,749.15 C631.18,749.15 611.43,755.65 614.68,752.9 C615.81,751.95 616.39,749.48 616.68,746.21 C617.17,740.03 616.46,731.02 615.97,724.15 C615.22,713.65 603.22,687.65 603.22,687.65 C603.22,687.65 593.22,662.15 586.97,646.4 C580.72,630.65 582.97,602.15 582.97,602.15 C582.97,602.15 583.97,580.65 588.47,574.15 C592.97,567.65 610.47,565.4 610.47,565.4 L618.68,592.63 C618.68,592.63 625.43,618.13 627.93,621.88 C630.43,625.63 629.68,670.38 628.68,675.13 C628.17,677.56 629.03,687.13 629.99,695.85 C630.969763,704.144156 633.013224,712.277672 636.07,720.05 C636.666781,721.332801 636.961009,722.735516 636.93,724.15 L636.93,724.15 Z" id="Shape" fill="#FDC2CC" fill-rule="nonzero"></path>
            <path d="M636.93,737.15 L631.18,749.15 C631.18,749.15 611.43,755.65 614.68,752.9 C615.81,751.95 616.39,749.48 616.68,746.21 C617.39,745.5 618.15,744.72 618.93,743.92 C623.955925,738.709642 630.043536,734.641003 636.78,731.99 C636.81,734.78 636.93,737.15 636.93,737.15 Z" id="Path" fill="#000000" fill-rule="nonzero" opacity="0.1"></path>
            <path d="M645.95,755.01 C645.955556,755.056501 645.955556,755.103499 645.95,755.15 C644.95,759.9 628.45,766.4 628.45,766.4 C628.45,766.4 617.95,768.15 611.95,769.65 C611.490918,769.773787 611.013977,769.817761 610.54,769.78 C605.91,769.43 605.7,760.52 605.7,759.15 C605.7,757.78 611.45,751.4 613.2,750.4 C615.178682,748.758885 617.036805,746.977626 618.76,745.07 C623.892092,739.755795 630.105483,735.605578 636.98,732.9 C636.98,732.9 646.75,750.08 645.95,755.01 L645.95,755.01 Z" id="Path" fill="#1E87F0" fill-rule="nonzero"></path>
            <path d="M645.95,755.01 C645.955556,755.056501 645.955556,755.103499 645.95,755.15 C644.95,759.9 628.45,766.4 628.45,766.4 C628.45,766.4 617.95,768.15 611.95,769.65 C611.490918,769.773787 611.013977,769.817761 610.54,769.78 C605.91,769.43 605.7,760.52 605.7,759.15 C605.7,757.78 611.45,751.4 613.2,750.4 C615.210576,748.737923 617.0957,746.929674 618.84,744.99 C623.863572,739.755112 629.954767,735.662483 636.7,732.99 L636.98,732.88 C636.98,732.88 646.75,750.08 645.95,755.01 Z" id="Path" fill="#000000" fill-rule="nonzero" opacity="0.3"></path>
            <path d="M645.95,755.01 C645.955556,755.056501 645.955556,755.103499 645.95,755.15 C644.95,759.9 628.45,766.4 628.45,766.4 C628.45,766.4 617.95,768.15 611.95,769.65 C611.490918,769.773787 611.013977,769.817761 610.54,769.78 C615.98,766.05 629.17,757.1 630.95,756.9 C632.73,756.7 641.5,754.18 645.95,755.01 L645.95,755.01 Z M715.41,362.29 C709.23,367.38 703.55,366.65 694.92,366.65 C688.68,366.65 680.57,368.84 675.46,366.03 C675.25,358.22 674.46,351.65 674.46,351.65 C674.46,351.65 717.96,343.4 715.21,353.65 C714.581206,356.504208 714.649811,359.467944 715.41,362.29 L715.41,362.29 Z" id="Shape" fill="#000000" fill-rule="nonzero" opacity="0.1"></path>
            <path d="M728.43,333.69 C728.43,353.43418 712.42418,369.44 692.68,369.44 C691.76,369.44 690.84,369.44 689.94,369.34 C670.611417,367.848767 655.993359,351.2241 656.98699,331.863558 C657.980622,312.503017 674.223831,297.462227 693.603524,297.9576 C712.983216,298.452973 728.436786,314.303978 728.44,333.69 L728.43,333.69 Z" id="Path" fill="#FDC2CC" fill-rule="nonzero"></path>
            <path d="M662.18,424.4 L671.68,439.4 L658.43,467.95 L642.68,479.45 L639.93,461.63 C639.93,461.63 634.61,449.88 632.32,447.89 C632.98,446.28 633.43,445.54 633.43,446.13 C633.43,448.63 639.58,459.88 639.58,459.88 C658.58,453.38 652.68,428.13 652.68,428.13 C652.68,428.13 650.32,405.63 649.4,399.71 L652.68,401.13 L662.18,424.4 Z M746.18,388.9 L746.18,402.9 L731.68,407.63 L706.98,425.81 L700.43,430.63 L671.18,418.88 L652.68,399.38 C652.68,399.38 653.58,398.89 655.14,398.08 L656.14,397.55 C669.01,403.4 682.94,405.55 692.89,406.32 C697.465838,406.70787 702.061337,406.811403 706.65,406.63 C744.32,400.63 745.44,391.53 744.5,388.3 L746.18,388.9 Z" id="Shape" fill="#000000" fill-rule="nonzero" opacity="0.1"></path>
            <path d="M756.93,615.63 C747.500461,620.2534 737.818527,624.343182 727.93,627.88 C710.68,634.13 672.68,625.88 667.93,624.63 C663.18,623.38 626.68,608.88 612.68,603.38 C598.68,597.88 595.18,602.38 591.93,601.88 C588.68,601.38 586.43,595.13 585.93,593.38 C585.43,591.63 594.93,576.38 600.18,568.63 C605.43,560.88 621.18,562.38 623.43,561.88 C625.68,561.38 641.43,561.88 641.43,561.88 C641.43,561.88 640.43,556.88 646.18,542.88 C651.93,528.88 636.68,502.88 636.68,502.88 C626.18,496.13 627.93,475.13 627.93,475.13 C625.43,465.88 633.43,444.63 633.43,447.13 C633.43,449.63 639.58,460.88 639.58,460.88 C658.58,454.38 652.68,429.13 652.68,429.13 C652.68,429.13 649.93,402.88 649.2,399.63 C648.47,396.38 652.68,396.88 652.68,396.88 C653.493333,397.3 654.313333,397.7 655.14,398.08 C668.3,404.28 682.7,406.54 692.92,407.32 C697.495838,407.70787 702.091337,407.811403 706.68,407.63 C752.35,400.26 744.26,388.51 743.96,388.09 L746.18,388.88 C762.68,400.88 757.68,440.63 757.68,440.63 L751.5,470.3 L746.91,492.4 C746.91,492.4 763.16,590.9 764.66,595.9 C766.16,600.9 756.93,615.63 756.93,615.63 L756.93,615.63 Z" id="Path" fill="#1E87F0" fill-rule="nonzero"></path>
            <path d="M635.18,570.63 C634.18,571.38 622.93,594.63 631.18,601.13 C639.43,607.63 635.18,570.63 635.18,570.63 Z M643.18,573.9 C643.43,574.65 666.68,611.65 679.43,614.65 L643.18,573.9 Z M699.19,281.11 L695.47,281.9 C696.495279,281.521897 697.544183,281.211234 698.61,280.97 L699.19,281.11 Z M755.21,440.63 L748.21,470.28 C744.638647,468.651035 741.355837,466.452362 738.49,463.77 C736.26,461.65 734.26,459.22 731.39,457.83 C727.7,456.04 723.25,456.28 719.06,456.13 C713.825991,455.934613 708.640911,455.046895 703.64,453.49 C702.187354,453.125533 700.825598,452.465081 699.64,451.55 C697.26,449.45 697.42,446.06 697.64,443.1 C698.074921,437.346435 698.125033,431.570244 697.79,425.81 C697.73,424.73 697.65,423.65 697.56,422.57 C697.16,417.74 695.86,412.14 690.92,410.07 C688.38,409.07 685.35,409.15 682.92,407.94 C682.568899,407.763471 682.23424,407.555982 681.92,407.32 C678.32,404.8 677.99,399.75 678.13,395.5 C678.343333,389.66 678.546667,383.816667 678.74,377.97 C678.922089,375.086496 678.858527,372.192727 678.55,369.32 C678.309195,367.412295 677.783334,365.551555 676.99,363.8 C674.82,359.16 670.3,355.29 669.49,350.39 C669.445279,350.162161 669.415217,349.931688 669.4,349.7 C668.98,345.32 671.74,341.24 672.71,336.93 C674.65,328.26 668.13,318.76 658.54,316.27 C655.54,315.49 652.32,315.34 649.33,314.45 C648.851866,314.307226 648.381264,314.140346 647.92,313.95 C655.16,304.29 667.57,297.95 681.66,297.95 C703.99,297.95 722.1,313.95 722.1,333.7 C722.1,344.9 716.27,354.89 707.16,361.45 C707.22,361.73 707.29,362.02 707.37,362.3 C709.72,371.39 717.01,380.91 717.01,380.91 L739.65,388.11 L742.17,388.91 C760.87,400.9 755.21,440.63 755.21,440.63 Z M767.5,469.35 C767.28,469.35 767.07,469.3 766.86,469.26 C767.077488,469.236922 767.297312,469.267835 767.5,469.35 L767.5,469.35 Z" id="Shape" fill="#000000" fill-rule="nonzero" opacity="0.1"></path>
            <path d="M690.18,280.12 C683.923238,278.666452 677.523322,277.918453 671.1,277.89 C669.01,277.89 666.77,278 665.1,279.15 C662.89,280.7 662.61,283.5 661.95,285.92 C660.756037,289.96108 658.237718,293.483205 654.8,295.92 C652.43,297.65 649.64,298.92 647.37,300.74 C645.1,302.56 643.37,305.26 643.94,307.92 C644.51,310.58 647.5,312.63 650.5,313.48 C653.5,314.33 656.69,314.48 659.71,315.3 C669.3,317.79 675.81,327.3 673.87,335.95 C672.87,340.26 670.14,344.34 670.56,348.72 C671.05,353.95 675.88,357.98 678.15,362.83 C680.22,367.25 680.08,372.21 679.92,376.99 L679.31,394.53 C679.15,399.15 679.55,404.71 684.11,406.97 C686.55,408.17 689.59,408.04 692.11,409.1 C697.05,411.16 698.35,416.77 698.75,421.59 C699.321618,428.420359 699.34837,435.285394 698.83,442.12 C698.6,445.12 698.44,448.47 700.83,450.57 C702.013124,451.489069 703.375754,452.149944 704.83,452.51 C709.830911,454.066895 715.015991,454.954613 720.25,455.15 C724.45,455.31 728.89,455.07 732.58,456.85 C735.45,458.24 737.45,460.68 739.68,462.79 C746.073826,468.640222 754.224489,472.209213 762.86,472.94 C764.71,473.1 766.81,473.06 768.1,471.87 C769.39,470.68 768.63,468.11 766.79,468.26 C769.9731,468.794788 773.195993,467.56228 775.21,465.04 C776.933825,462.589455 776.933825,459.320545 775.21,456.87 C773.12,453.87 768.68,451.87 768.44,448.31 C768.31,446.31 769.64,444.5 770.68,442.72 C775.830497,433.61614 774.346969,422.20439 767.04,414.72 C762.35,409.87 755.32,406.19 753.68,399.97 C752.59,395.81 754.24,391.44 753.61,387.21 C752.61,380.21 745.68,375.21 741.87,368.97 C738.06,362.73 737.39,355.18 738.36,348.08 C739.33,340.98 741.79,334.08 743.79,327.18 C745.28,322.03 746.51,316.56 744.85,311.45 C743.66,307.82 741.1,304.67 738.44,301.7 C732.07,294.59 724.74,287.93 715.68,283.7 C706.62,279.47 695.58,277.83 685.96,280.96" id="Path" fill="#474157" fill-rule="nonzero"></path>
            <path d="M690.18,280.12 C683.923238,278.666452 677.523322,277.918453 671.1,277.89 C669.01,277.89 666.77,278 665.1,279.15 C662.89,280.7 662.61,283.5 661.95,285.92 C660.756037,289.96108 658.237718,293.483205 654.8,295.92 C652.43,297.65 649.64,298.92 647.37,300.74 C645.1,302.56 643.37,305.26 643.94,307.92 C644.51,310.58 647.5,312.63 650.5,313.48 C653.5,314.33 656.69,314.48 659.71,315.3 C669.3,317.79 675.81,327.3 673.87,335.95 C672.87,340.26 670.14,344.34 670.56,348.72 C671.05,353.95 675.88,357.98 678.15,362.83 C680.22,367.25 680.08,372.21 679.92,376.99 L679.31,394.53 C679.15,399.15 679.55,404.71 684.11,406.97 C686.55,408.17 689.59,408.04 692.11,409.1 C697.05,411.16 698.35,416.77 698.75,421.59 C699.321618,428.420359 699.34837,435.285394 698.83,442.12 C698.6,445.12 698.44,448.47 700.83,450.57 C702.013124,451.489069 703.375754,452.149944 704.83,452.51 C709.830911,454.066895 715.015991,454.954613 720.25,455.15 C724.45,455.31 728.89,455.07 732.58,456.85 C735.45,458.24 737.45,460.68 739.68,462.79 C746.073826,468.640222 754.224489,472.209213 762.86,472.94 C764.71,473.1 766.81,473.06 768.1,471.87 C769.39,470.68 768.63,468.11 766.79,468.26 C769.9731,468.794788 773.195993,467.56228 775.21,465.04 C776.933825,462.589455 776.933825,459.320545 775.21,456.87 C773.12,453.87 768.68,451.87 768.44,448.31 C768.31,446.31 769.64,444.5 770.68,442.72 C775.830497,433.61614 774.346969,422.20439 767.04,414.72 C762.35,409.87 755.32,406.19 753.68,399.97 C752.59,395.81 754.24,391.44 753.61,387.21 C752.61,380.21 745.68,375.21 741.87,368.97 C738.06,362.73 737.39,355.18 738.36,348.08 C739.33,340.98 741.79,334.08 743.79,327.18 C745.28,322.03 746.51,316.56 744.85,311.45 C743.66,307.82 741.1,304.67 738.44,301.7 C732.07,294.59 724.74,287.93 715.68,283.7 C706.62,279.47 695.58,277.83 685.96,280.96 M636.68,502.9 C636.68,502.9 645.18,506.15 654.18,497.15 C663.18,488.15 636.68,502.9 636.68,502.9 Z" id="Shape" fill="#000000" fill-rule="nonzero" opacity="0.1"></path>
            <g id="Group" opacity="0.1" transform="translate(643.000000, 277.000000)" fill="#000000" fill-rule="nonzero">
                <path d="M50.94,2.97 C52.58967,2.64201634 54.2605315,2.4314878 55.94,2.34 C53.6048751,2.19730022 51.2615555,2.27094741 48.94,2.56 L50.94,2.97 Z M101.08,185.79 C98.84,183.68 96.85,181.24 93.97,179.85 C90.29,178.07 85.84,178.31 81.64,178.15 C76.4056005,177.95838 71.2200254,177.070578 66.22,175.51 C64.7657542,175.149944 63.4031243,174.489069 62.22,173.57 C59.84,171.47 60.01,168.09 60.22,165.12 C60.7383697,158.285394 60.7116184,151.420359 60.14,144.59 C59.73,139.77 58.44,134.16 53.49,132.1 C50.96,131.04 47.93,131.17 45.49,129.97 C40.93,127.71 40.49,122.15 40.68,117.53 C40.8866667,111.683333 41.09,105.84 41.29,100 C41.46,95.21 41.59,90.25 39.52,85.83 C37.25,80.98 32.42,76.96 31.93,71.72 C31.52,67.35 34.28,63.26 35.25,58.95 C37.19,50.28 30.67,40.79 21.08,38.3 C18.08,37.52 14.86,37.36 11.87,36.48 C8.88,35.6 5.98,33.7 5.36,30.98 C4.74,28.26 6.51,25.62 8.78,23.79 C11.05,21.96 13.84,20.7 16.22,18.97 C19.6578916,16.5355069 22.1736225,13.0120742 23.36,8.97 C24.03,6.55 24.36,3.76 26.51,2.2 C27.7426262,1.43574874 29.1598249,1.02095888 30.61,1 C29.72,1 28.83,0.95 27.95,0.95 C25.86,0.95 23.62,1.06 21.95,2.2 C19.74,3.76 19.46,6.55 18.8,8.97 C17.6060372,13.0110801 15.087718,16.5332048 11.65,18.97 C9.28,20.7 6.49,21.97 4.22,23.79 C1.95,25.61 0.22,28.31 0.79,30.98 C1.36,33.65 4.32,35.59 7.31,36.48 C10.3,37.37 13.5,37.48 16.52,38.3 C26.11,40.79 32.62,50.3 30.68,58.95 C29.68,63.26 26.95,67.35 27.37,71.72 C27.86,76.96 32.69,80.98 34.96,85.83 C37.03,90.25 36.9,95.21 36.73,100 C36.5233333,105.84 36.32,111.683333 36.12,117.53 C35.96,122.15 36.36,127.71 40.92,129.97 C43.36,131.17 46.4,131.04 48.92,132.1 C53.86,134.16 55.16,139.77 55.56,144.59 C56.1316184,151.420359 56.1583697,158.285394 55.64,165.12 C55.41,168.12 55.25,171.47 57.64,173.57 C58.8231243,174.489069 60.1857542,175.149944 61.64,175.51 C66.6397745,177.071621 71.8254901,177.959447 77.06,178.15 C81.26,178.31 85.7,178.07 89.39,179.85 C92.26,181.24 94.26,183.68 96.5,185.79 C102.888676,191.642048 111.03687,195.211498 119.67,195.94 C120.786567,196.072793 121.917081,196.028922 123.02,195.81 C114.833668,194.864856 107.155058,191.358034 101.08,185.79 L101.08,185.79 Z" id="Shape"></path>
            </g>
            <path d="M588.93,432.63 C588.93,432.63 580.93,439.97 582.1,442.97 C583.27,445.97 588.93,432.63 588.93,432.63 Z" id="Path" fill="#000000" fill-rule="nonzero" opacity="0.1"></path>
            <path d="M596.35,526.98 C590.58,525.57 574.67,524.27 567.1,549.66 C565.337577,555.557522 563.093354,561.300192 560.39,566.83 C553.13,581.74 543.75,612.4 585,619.15 L684,641.65 C684,641.65 737,648.15 740.5,645.65 C744,643.15 743.5,637.65 743.5,637.65 C743.5,637.65 685,637.65 673.5,619.65 C662,601.65 661.5,577.15 661.5,577.15 C661.5,577.15 662.94,539.32 602.5,528.33 C600.5,527.95 598.4,527.48 596.35,526.98 L596.35,526.98 Z" id="Path" fill="#474157" fill-rule="nonzero"></path>
            <path d="M596.35,527.15 C590.58,525.74 574.67,524.44 567.1,549.84 C565.337577,555.737522 563.093354,561.480192 560.39,567.01 C553.13,581.91 543.75,612.57 585,619.32 L684,641.82 C684,641.82 737,648.32 740.5,645.82 C744,643.32 743.5,637.82 743.5,637.82 C743.5,637.82 685,637.82 673.5,619.82 C662,601.82 661.5,577.32 661.5,577.32 C661.5,577.32 662.94,539.49 602.5,528.5 C600.5,528.12 598.4,527.63 596.35,527.15 L596.35,527.15 Z" id="Path" fill="#000000" fill-rule="nonzero" opacity="0.1"></path>
            <path d="M803.88,501.11 C802.694371,493.54071 796.089642,488.017533 788.43,488.19 C774.19,488.45 730.36,490.35 710,503.65 C710,503.65 694.5,513.65 690,513.65 C685.5,513.65 624.5,565.65 715,612.15 C715,612.15 763.5,625.95 782.5,593.55 C782.5,593.55 796,558.75 795,546.7 C794,534.65 804,502.15 804,502.15 C804,502.15 803.98,501.76 803.88,501.11 L803.88,501.11 Z" id="Path" fill="#474157" fill-rule="nonzero"></path>
            <path d="M803.88,509.87 C802.74,502.87 796.08,497.81 788.43,497.94 C774.19,498.18 730.36,499.94 710,512.21 C710,512.21 694.5,521.44 690,521.44 C685.5,521.44 624.5,569.44 715,612.37 C715,612.37 763.5,625.11 782.5,595.2 C782.5,595.2 796,563.07 795,551.95 C794,540.83 804,510.83 804,510.83 C804,510.83 803.98,510.47 803.88,509.87 L803.88,509.87 Z" id="Path" fill="#000000" fill-rule="nonzero" opacity="0.1"></path>
            <polygon id="Path" fill="#5F5D7E" fill-rule="nonzero" points="739.5 612.14 755.5 612.14 755.5 646.21 739.5 646.21"></polygon>
            <ellipse id="Oval" fill="#000000" fill-rule="nonzero" opacity="0.1" cx="170.24" cy="470.71" rx="45.04" ry="2.89"></ellipse>
            <path d="M208.04,359.25 C207.080625,360.56478 206.312951,362.009219 205.76,363.54 C205.62,363.92 205.48,364.34 205.34,364.75 C205.087729,364.630404 204.822699,364.539825 204.55,364.48 C203.383951,364.188112 202.178909,364.083472 200.98,364.17 C200.98,363.71 201.04,363.17 201.05,362.71 C201.2,357.44 200.58,350.09 195.55,353.2 C190.73,356.2 194.17,361.2 197.28,364.41 L198.08,365.19 C195.24,367.19 194.7,371.92 194.23,376.83 C193.76,381.74 189.59,387.12 186.82,390.17 C186.54,390.48 186.29,390.76 186.04,391.02 C183.777507,389.207856 180.846005,388.454041 177.99,388.95 C177.88,388.52 177.75,388.07 177.62,387.59 C175.38,379.51 170.73,365.5 164.8,362.43 L165.58,361.43 C168.1,358.13 170.94,353.24 166.75,351.98 C162.56,350.72 162.18,356.23 162.41,360.35 C162.41,360.87 162.49,361.35 162.53,361.81 C160.83815,361.891879 159.254363,362.665693 158.15,363.95 L157.5,363.19 C154.1,359.19 147.87,352.82 145.98,357.63 C144.22,362.11 149.71,367.92 153.57,371.29 L153.81,371.5 C151.22,382.03 162.5,390.63 168.62,394.35 L169.41,394.83 C161.01,404.73 155.82,423.28 155.82,423.28 L179.34,427.48 C179.34,427.48 194.94,414.03 192.94,401.39 L193.1,401.39 C208.69,398.27 212.23,381.65 209.8,371.78 L210.08,371.67 C212.918326,370.50497 215.405978,368.623726 217.3,366.21 C221.66,360.14 212.5,353.3 208.04,359.25 L208.04,359.25 Z" id="Path" fill="#1E87F0" fill-rule="nonzero"></path>
            <path d="M208.04,359.25 C207.080625,360.56478 206.312951,362.009219 205.76,363.54 C205.62,363.92 205.48,364.34 205.34,364.75 C205.087729,364.630404 204.822699,364.539825 204.55,364.48 C203.383951,364.188112 202.178909,364.083472 200.98,364.17 C200.98,363.71 201.04,363.17 201.05,362.71 C201.2,357.44 200.58,350.09 195.55,353.2 C190.73,356.2 194.17,361.2 197.28,364.41 L198.08,365.19 C195.24,367.19 194.7,371.92 194.23,376.83 C193.76,381.74 189.59,387.12 186.82,390.17 C186.54,390.48 186.29,390.76 186.04,391.02 C183.777507,389.207856 180.846005,388.454041 177.99,388.95 C177.88,388.52 177.75,388.07 177.62,387.59 C175.38,379.51 170.73,365.5 164.8,362.43 L165.58,361.43 C168.1,358.13 170.94,353.24 166.75,351.98 C162.56,350.72 162.18,356.23 162.41,360.35 C162.41,360.87 162.49,361.35 162.53,361.81 C160.83815,361.891879 159.254363,362.665693 158.15,363.95 L157.5,363.19 C154.1,359.19 147.87,352.82 145.98,357.63 C144.22,362.11 149.71,367.92 153.57,371.29 L153.81,371.5 C151.22,382.03 162.5,390.63 168.62,394.35 L169.41,394.83 C161.01,404.73 155.82,423.28 155.82,423.28 L179.34,427.48 C179.34,427.48 194.94,414.03 192.94,401.39 L193.1,401.39 C208.69,398.27 212.23,381.65 209.8,371.78 L210.08,371.67 C212.918326,370.50497 215.405978,368.623726 217.3,366.21 C221.66,360.14 212.5,353.3 208.04,359.25 L208.04,359.25 Z" id="Path" fill="#000000" fill-rule="nonzero" opacity="0.1"></path>
            <path d="M161.22,366.03 L158.5,374.08 C158.5,374.08 156.97,373 155.04,371.3 C151.18,367.93 145.69,362.12 147.45,357.64 C149.34,352.83 155.57,359.18 158.97,363.2 C160.31,364.79 161.22,366.03 161.22,366.03 Z M167.02,361.44 C166.18317,362.536792 165.288572,363.588278 164.34,364.59 C164.105619,363.18914 163.942078,361.777344 163.85,360.36 C163.62,356.24 164.06,350.77 168.19,351.99 C172.32,353.21 169.5,358.14 167.02,361.44 L167.02,361.44 Z M202.5,362.71 C202.42,365.36 202.16,367.47 202.16,367.47 C200.948948,366.528542 199.802997,365.506206 198.73,364.41 C195.62,361.18 192.18,356.2 197,353.2 C202.02,350.09 202.64,357.44 202.5,362.71 Z M218.74,366.18 C216.839187,368.59282 214.344459,370.470757 211.5,371.63 C210.712651,371.971156 209.904343,372.261746 209.08,372.5 L205.84,367.95 C206.183047,366.447221 206.630807,364.970282 207.18,363.53 C207.732951,361.999219 208.500625,360.55478 209.46,359.24 C213.96,353.3 223.1,360.14 218.74,366.18 L218.74,366.18 Z" id="Shape" fill="#1E87F0" fill-rule="nonzero"></path>
            <path d="M158.94,363.2 C160.31,364.79 161.22,366.03 161.22,366.03 L158.5,374.08 C158.5,374.08 156.97,373 155.04,371.3 C155.470837,368.722661 156.53617,366.293014 158.14,364.23 C158.38,363.86 158.67,363.51 158.94,363.2 L158.94,363.2 Z M167.02,361.44 C166.18317,362.536792 165.288572,363.588278 164.34,364.59 C164.105619,363.18914 163.942078,361.777344 163.85,360.36 C164.993709,360.379055 166.10255,360.756831 167.02,361.44 L167.02,361.44 Z" id="Shape" fill="#000000" fill-rule="nonzero" opacity="0.1"></path>
            <path d="M180.5,393.4 L173.66,396.4 C173.66,396.4 172.17,395.68 170.02,394.34 C162.83,389.91 148.38,378.78 158.07,365.66 C167.76,352.54 175.84,376.08 179.02,387.58 C180.03,391.03 180.5,393.4 180.5,393.4 Z" id="Path" fill="#1E87F0" fill-rule="nonzero"></path>
            <path d="M198.72,364.41 C199.711939,363.380525 201.061737,362.771863 202.49,362.71 C202.41,365.36 202.15,367.47 202.15,367.47 C200.938948,366.528542 199.792997,365.506206 198.72,364.41 Z M211.5,371.63 C210.712651,371.971156 209.904343,372.261746 209.08,372.5 L205.84,367.95 C206.183047,366.447221 206.630807,364.970282 207.18,363.53 C209.29,364.77 210.83,367.8 211.5,371.63 L211.5,371.63 Z" id="Shape" fill="#000000" fill-rule="nonzero" opacity="0.1"></path>
            <path d="M194.5,401.36 L193.35,401.56 C170.42,405.05 185.79,392.68 185.79,392.68 C185.79,392.68 186.79,391.73 188.22,390.17 C190.99,387.12 195.15,381.77 195.63,376.83 C196.35,369.4 197.18,362.43 205.95,364.48 C214.6,366.49 216.25,397.01 194.5,401.36 Z" id="Path" fill="#1E87F0" fill-rule="nonzero"></path>
            <polygon id="Path" fill="#474157" fill-rule="nonzero" points="150.3 458.44 194.11 458.44 194.11 469.96 150.3 469.96"></polygon>
            <polygon id="Path" fill="#474157" fill-rule="nonzero" points="143.34 421 200.58 421 200.58 461.2 143.34 461.2"></polygon>
            <polygon id="Path" fill="#000000" fill-rule="nonzero" opacity="0.1" points="149.88 458.44 193.69 458.44 193.69 469.96 149.88 469.96"></polygon>
            <polygon id="Path" fill="#000000" fill-rule="nonzero" opacity="0.1" points="143.16 421.01 200.4 421.01 200.4 461.21 143.16 461.21"></polygon>
            <polygon id="Path" fill="#474157" fill-rule="nonzero" points="153.18 458.44 196.99 458.44 196.99 469.96 153.18 469.96"></polygon>
            <path d="M179.06,387.63 C180.06,391.07 180.54,393.44 180.54,393.44 L173.7,396.44 C173.7,396.44 172.21,395.72 170.06,394.38 C172.74,390.95 175.76,388.38 179.06,387.63 Z M194.5,401.36 L193.35,401.56 C170.42,405.05 185.79,392.68 185.79,392.68 C185.79,392.68 186.79,391.73 188.22,390.17 C192.5,393.63 194.31,397.46 194.5,401.36 Z" id="Shape" fill="#000000" fill-rule="nonzero" opacity="0.1"></path>
            <path d="M157.26,423.28 C157.26,423.28 170.1,377.28 188.11,391.48 C206.12,405.68 180.78,427.48 180.78,427.48 L157.26,423.28 Z" id="Path" fill="#1E87F0" fill-rule="nonzero"></path>
            <circle id="Oval" fill="#000000" fill-rule="nonzero" opacity="0.1" cx="163.74" cy="372.87" r="1.44"></circle>
            <circle id="Oval" fill="#000000" fill-rule="nonzero" opacity="0.1" cx="163.62" cy="379.6" r="1.44"></circle>
            <circle id="Oval" fill="#000000" fill-rule="nonzero" opacity="0.1" cx="205.39" cy="374.19" r="1.44"></circle>
            <circle id="Oval" fill="#000000" fill-rule="nonzero" opacity="0.1" cx="171.78" cy="408.64" r="1.44"></circle>
            <circle id="Oval" fill="#000000" fill-rule="nonzero" opacity="0.1" cx="202.39" cy="385.36" r="1.44"></circle>
            <circle id="Oval" fill="#000000" fill-rule="nonzero" opacity="0.1" cx="187.51" cy="400.24" r="1.44"></circle>
            <circle id="Oval" fill="#000000" fill-rule="nonzero" opacity="0.1" cx="168.66" cy="375.75" r="1.44"></circle>
            <circle id="Oval" fill="#000000" fill-rule="nonzero" opacity="0.1" cx="201.43" cy="378.52" r="1.44"></circle>
            <circle id="Oval" fill="#000000" fill-rule="nonzero" opacity="0.1" cx="196.51" cy="389.68" r="1.44"></circle>
            <circle id="Oval" fill="#000000" fill-rule="nonzero" opacity="0.1" cx="181.38" cy="407.56" r="1.44"></circle>
            <circle id="Oval" fill="#000000" fill-rule="nonzero" opacity="0.1" cx="178.26" cy="400.48" r="1.44"></circle>
            <circle id="Oval" fill="#000000" fill-rule="nonzero" opacity="0.1" cx="170.82" cy="384.52" r="1.44"></circle>
            <polygon id="Path" fill="#000000" fill-rule="nonzero" opacity="0.1" points="153.18 458.44 196.99 458.44 196.99 462.65 153.18 462.65"></polygon>
            <polygon id="Path" fill="#474157" fill-rule="nonzero" points="146.22 421 203.46 421 203.46 461.2 146.22 461.2"></polygon>
            <circle id="Oval" fill="#000000" fill-rule="nonzero" opacity="0.1" cx="183.3" cy="414.04" r="1.44"></circle>
            <circle id="Oval" fill="#000000" fill-rule="nonzero" opacity="0.1" cx="174.66" cy="415.84" r="1.44"></circle>
            <path d="M311.89,574.63 C311.89,574.63 319.02,583.96 308.6,598.04 C298.18,612.12 289.6,624.04 293.04,632.8 C293.04,632.8 308.78,606.64 321.59,606.28 C334.4,605.92 325.98,590.37 311.89,574.63 Z" id="Path" fill="#1E87F0" fill-rule="nonzero"></path>
            <path d="M311.89,574.63 C312.513168,575.528881 313.004796,576.512137 313.35,577.55 C325.84,592.23 332.5,605.93 320.49,606.28 C309.3,606.63 295.88,626.63 292.66,631.63 C292.77,632.02 292.9,632.41 293.04,632.78 C293.04,632.78 308.78,606.62 321.59,606.26 C334.4,605.9 325.98,590.37 311.89,574.63 Z" id="Path" fill="#000000" fill-rule="nonzero" opacity="0.1"></path>
            <path d="M325.15,586.53 C325.15,589.81 324.78,592.47 324.33,592.47 C323.88,592.47 323.51,589.81 323.51,586.53 C323.51,583.25 323.97,584.79 324.42,584.79 C324.87,584.79 325.15,583.24 325.15,586.53 L325.15,586.53 Z" id="Path" fill="#FFD037" fill-rule="nonzero"></path>
            <path d="M329.7,590.45 C326.82,592.02 324.31,592.97 324.09,592.57 C323.87,592.17 326.03,590.57 328.92,589 C331.81,587.43 330.66,588.57 330.92,589 C331.18,589.43 332.59,588.88 329.7,590.45 L329.7,590.45 Z" id="Path" fill="#FFD037" fill-rule="nonzero"></path>
            <path d="M274.2,574.63 C274.2,574.63 267.07,583.96 277.49,598.04 C287.91,612.12 296.49,624.04 293.04,632.8 C293.04,632.8 277.31,606.64 264.5,606.28 C251.69,605.92 260.11,590.37 274.2,574.63 Z" id="Path" fill="#1E87F0" fill-rule="nonzero"></path>
            <path d="M274.2,574.63 C273.576832,575.528881 273.085204,576.512137 272.74,577.55 C260.25,592.23 253.59,605.93 265.6,606.28 C276.79,606.63 290.21,626.63 293.43,631.63 C293.321081,632.020162 293.190887,632.40407 293.04,632.78 C293.04,632.78 277.31,606.63 264.5,606.29 C251.69,605.95 260.11,590.37 274.2,574.63 L274.2,574.63 Z" id="Path" fill="#000000" fill-rule="nonzero" opacity="0.1"></path>
            <path d="M260.94,586.53 C260.94,589.81 261.31,592.47 261.76,592.47 C262.21,592.47 262.58,589.81 262.58,586.53 C262.58,583.25 262.12,584.79 261.67,584.79 C261.22,584.79 260.94,583.24 260.94,586.53 L260.94,586.53 Z" id="Path" fill="#FFD037" fill-rule="nonzero"></path>
            <path d="M256.39,590.45 C259.27,592.02 261.78,592.97 262,592.57 C262.22,592.17 260.06,590.57 257.17,589 C254.28,587.43 255.43,588.57 255.17,589 C254.91,589.43 253.5,588.88 256.39,590.45 L256.39,590.45 Z" id="Path" fill="#FFD037" fill-rule="nonzero"></path>
            <ellipse id="Oval" fill="#1E87F0" fill-rule="nonzero" opacity="0.1" cx="293.04" cy="692.74" rx="74.6" ry="11.45"></ellipse>
            <path d="M331.44,620.24 L331.08,623.15 L330.58,627.27 L330.38,628.98 L329.87,633.1 L329.66,634.82 L329.16,638.93 L323.5,685.73 C322.99,689.91 316.16,693.16 307.93,693.16 L278.21,693.16 C269.97,693.16 263.21,689.91 262.65,685.73 L256.93,638.93 L256.43,634.82 L256.22,633.1 L255.71,628.98 L255.51,627.27 L255.01,623.15 L254.65,620.24 C254.36,617.88 258.05,615.88 262.72,615.88 L323.38,615.88 C328.03,615.88 331.73,617.88 331.44,620.24 Z" id="Path" fill="#65617D" fill-rule="nonzero"></path>
            <path d="M331.08,623.15 L330.58,627.26 L255.51,627.26 L255.01,623.15 L331.08,623.15 Z M330.38,628.98 L329.88,633.1 L256.22,633.1 L255.71,628.98 L330.38,628.98 L330.38,628.98 Z M329.66,634.81 L329.16,638.93 L256.93,638.93 L256.43,634.81 L329.66,634.81 Z" id="Shape" fill="#9D9CB5" fill-rule="nonzero"></path>
        </g>
    </g>
</svg>